<?xml version="1.0" standalone="no"?>
<!DOCTYPE svg PUBLIC "-//W3C//DTD SVG 1.1//EN" "http://www.w3.org/Graphics/SVG/1.1/DTD/svg11.dtd" >
<svg xmlns="http://www.w3.org/2000/svg" xmlns:xlink="http://www.w3.org/1999/xlink" version="1.1">
<metadata>
Created by FontForge 20170731 at Mon Mar 15 07:54:43 2021
 By Aleksey,,,
stangith (c)Mokatype Studio. All Rights Reserved
</metadata>
<defs>
<font id="stangith" horiz-adv-x="100" >
  <font-face 
    font-family="stangith"
    font-weight="400"
    font-stretch="normal"
    units-per-em="2048"
    panose-1="2 0 5 0 0 0 0 0 0 0"
    ascent="1638"
    descent="-410"
    x-height="951"
    cap-height="1433"
    bbox="-525 -514 3483 1857"
    underline-thickness="150"
    underline-position="-442"
    unicode-range="U+001D-E256"
  />
<missing-glyph horiz-adv-x="924" 
d="M50 0v1434h824v-1434h-824zM100 50q353 159 724 0v1334q-384 -118 -724 0v-1334zM369 334l57 58q11 10 20 10q10 0 22 -11l56 -60q9 -11 9 -20q0 -11 -10 -22l-56 -62q-14 -14 -21 -14q-11 0 -20 10l-61 71q-7 9 -7 18q0 10 11 22zM363 1191q53 30 112 30q92 0 148 -47.5
t56 -127.5q0 -49 -23 -98.5t-87 -129.5q-63 -80 -99 -132t-36 -99q0 -38 24 -133h-32q-35 97 -35 148q0 76 81.5 218t81.5 217q0 57 -33 90t-91 33q-8 0 -16 -1l32 -51q7 -12 5 -21q-2 -11 -14 -20l-66 -50q-17 -11 -24 -10q-10 2 -17 14l-47 81q-5 10 -3 19q1 10 28.5 32.5
t54.5 37.5z" />
    <glyph glyph-name="AH" unicode="AH" horiz-adv-x="3513" 
d="M3320 0h-368q34 17 58 46t24 77v410q-159 -43 -386 -43q-189 0 -367 22v-389q0 -48 24 -77t58 -46h-369q34 17 58 46t24 77v418q-208 35 -413 78l-65 13l200 -496q45 -93 129 -136h-391q19 14 34.5 39t15.5 57q0 21 -9 44l-222 538q-203 37 -417 56l-32 -80l-30 -72
q-105 -280 -219 -429q-60 -75 -132.5 -114t-164.5 -39q-91 0 -161 43.5t-109.5 117t-39.5 163.5q0 203 164.5 321t479.5 118q117 0 229 -10l268 679h83l315 -780l108 -22q189 -38 379 -70v749q0 48 -24 77t-58 46h369q-34 -17 -58 -46t-24 -77v-778q178 -23 367 -23
q227 0 386 42v759q0 48 -24 77t-58 46h368q-33 -17 -57 -46t-24 -77v-678q102 58 211 148l26 20l7 -10l-22 -17q-114 -94 -222 -157v-492q0 -48 24 -77t57 -46zM360 18q116 0 200.5 64.5t155.5 192.5t145 317q27 72 55 143q-109 9 -222 10q-299 -1 -462 -109t-163 -312
q0 -129 80.5 -217.5t210.5 -88.5zM1347 698l-216 525l-186 -471q206 -19 402 -54z" />
    <glyph glyph-name="CA" unicode="CA" horiz-adv-x="2475" 
d="M762 -1q-149 0 -278.5 49t-226.5 144t-152 232t-55 312q0 176 55 312.5t152 231.5t226.5 144t278.5 49q130 0 234.5 -23.5t177.5 -46.5l42 -12l-61 -262q-46 149 -154.5 236t-238.5 87q-245 0 -370 -204q-117 -190 -117 -512t117 -511q126 -205 370 -205v-1
q118 0 218.5 58t190.5 189t175 348q47 122 330 838h83l539 -1320q19 -41 53 -77t74 -55h-391q46 32 51 97q0 19 -8 39l-134 312h-649q-77 -163 -160.5 -262t-176 -142.5t-195.5 -43.5v-1zM1935 468l-319 775q-70 -178 -108.5 -277.5t-146.5 -364.5q-28 -71 -57 -133h631z
" />
    <glyph glyph-name="CK" unicode="CK" horiz-adv-x="1947" 
d="M1897 0h-489q20 17 20 44q0 31 -32 78l-231 244q-59 77 -89 137.5t-40 113t-10 104.5q0 56 27 116l-171 -172v-317q0 -48 24 -76.5t58 -46.5h-369q34 18 58 46.5t24 76.5v778q0 48 -24 76.5t-58 46.5h369q-34 -18 -58 -46.5t-24 -76.5v-430q330 336 494 529t164 224
q0 3 -1 4h194q-46 -21 -220.5 -179t-396.5 -375q-60 -75 -60 -154q0 -64 50 -136.5t164 -166.5l441 -335q84 -68 186 -107zM762 -19q-149 0 -278.5 50t-226.5 145.5t-152 234.5t-55 316q0 178 55 317t152 234.5t226.5 145.5t278.5 50q132 -2 237.5 -25.5t179.5 -46.5l37 -11
l-61 -266q-46 152 -155 240.5t-238 88.5q-169 -2 -276.5 -96.5t-159 -258.5t-51.5 -372q0 -326 117 -518q126 -207 370 -207q132 2 239.5 89t153.5 238l61 -265l-37 -11q-74 -23 -180 -47.5t-237 -24.5z" />
    <glyph glyph-name="CH" unicode="CH" horiz-adv-x="1934" 
d="M762 -1q-149 0 -278.5 49.5t-226.5 144t-152 231t-55 312.5t55 312.5t152 231t226.5 144t278.5 49.5q132 -2 237.5 -25t179.5 -46l37 -11l-61 -262q-46 149 -155 236.5t-238 87.5q-169 -2 -276.5 -95t-159 -255t-51.5 -367q0 -322 117 -512q126 -205 370 -205
q132 2 239.5 88.5t153.5 235.5l61 -262l-37 -11q-74 -23 -180 -47t-237 -24zM1884 -1h-368q34 18 58 46.5t24 76.5l-4 604h-712v-379q0 -48 24 -76.5t58 -46.5h-369q34 18 58 46.5t24 76.5v778q0 48 -24 76.5t-58 46.5h369q-34 -18 -58 -46.5t-24 -76.5v-379h712v583
q0 48 -24 76.5t-58 46.5h368q-33 -18 -57 -46.5t-24 -76.5l4 -1207q0 -48 24 -76.5t57 -46.5z" />
    <glyph glyph-name="EA" unicode="EA" horiz-adv-x="2275" 
d="M1038 -1h-986q34 18 58 46.5t24 76.5l-2 1195q0 47 -24 76t-58 46h962l61 -245l-37 34q-37 35 -97 78.5t-132 78t-143 34.5h-328l2 -1400h307q53 0 110 24t110.5 59.5t98.5 72.5q106 223 253 579h-214q-247 -4 -384 -27t-155 -55v184q18 -32 154 -54.5t383 -26.5h224
q42 103 263 664h83l525 -1303q46 -93 129 -136h-391q20 14 35 38.5t15 56.5q0 22 -9 45l-251 614h-383q-60 -161 -105 -299l-7 -20q-98 -321 -98 -409q0 -22 7 -27zM1616 774l-188 456l-77 -195q-39 -96 -102 -260z" />
    <glyph glyph-name="ED" unicode="ED" horiz-adv-x="2488" 
d="M1726 0h-577q34 18 58 46.5t24 76.5v624l-228 -1q-248 -3 -384.5 -26t-154.5 -55v184q18 -32 154 -55t383 -26l178 -1h52v542q0 48 -24 76.5t-58 46.5h577q149 0 278.5 -46t226.5 -136.5t152 -224t55 -309.5q0 -234 -91 -393.5t-251.5 -241t-369.5 -81.5zM1726 20
q156 0 265 86.5t165.5 243t56.5 366.5t-51.5 366.5t-159 243t-276.5 86.5h-291v-1392h291zM1032 0h-982q34 18 58 46.5t24 76.5v1186q0 48 -24 76.5t-58 46.5h962l61 -245l-37 34q-37 34 -97 78t-132 78.5t-143 34.5h-328v-1392h307q71 0 149.5 40.5t146.5 92.5t112 93
l43 40z" />
    <glyph glyph-name="EE" unicode="EE" horiz-adv-x="2268" 
d="M1032 0h-982q34 18 58 46.5t24 76.5v1186q0 48 -24 76.5t-58 46.5h962l61 -245l-37 34q-37 34 -97 78t-132 78.5t-143 34.5h-328v-1392h307q71 0 149.5 40.5t146.5 92.5t112 93l43 40zM2157 0h-983q34 18 58 46.5t24 76.5v624l-253 -1q-248 -3 -384.5 -26t-154.5 -55v184
q18 -32 154 -55t383 -26l173 -1h82v542q0 48 -24 76.5t-58 46.5h962l61 -245l-36 34q-37 34 -97 78t-132.5 78.5t-143.5 34.5h-327v-645q273 0 425 24t172 58v-184q-20 34 -171.5 58t-425.5 24v-727h307q71 0 149.5 40.5t146.5 92.5t111 93l43 40z" />
    <glyph glyph-name="EB" unicode="EB" horiz-adv-x="2365" 
d="M1783 0h-634q34 18 58 46.5t24 76.5v624l-228 -1q-248 -3 -384.5 -26t-154.5 -55v184q18 -32 154 -55t383 -26l178 -1h52v542q0 48 -24 76.5t-58 46.5h510q163 0 288 -29t195.5 -104.5t70.5 -215.5q0 -161 -128 -259q-107 -80 -263 -109q45 -14 93 -27q99 -27 190 -63.5
t149.5 -101.5t60.5 -178q0 -132 -65 -207t-184 -106.5t-283 -31.5zM1800 722q41 12 84 49t73.5 107.5t30.5 185.5q0 110 -32 187.5t-104 119t-193 41.5h-224v-340q0 -105 44 -166t117 -98q89 -47 204 -86zM1783 20q307 0 307 310q-4 110 -54 185t-128 123.5t-166 80.5
q-99 34 -183 83.5t-124 141.5v-924h348zM1032 0h-982q34 18 58 46.5t24 76.5v1186q0 48 -24 76.5t-58 46.5h962l61 -245l-37 34q-37 34 -97 78t-132 78.5t-143 34.5h-328v-1392h307q71 0 149.5 40.5t146.5 92.5t112 93l43 40z" />
    <glyph glyph-name="ER" unicode="ER" horiz-adv-x="2478" 
d="M1032 0h-982q34 18 58 46.5t24 76.5v1186q0 48 -24 76.5t-58 46.5h962l61 -245l-37 34q-37 34 -97 78t-132 78.5t-143 34.5h-328v-1392h307q71 0 149.5 40.5t146.5 92.5t111 93l44 40zM2428 0h-490q20 17 20 44q0 31 -32 78q-216 280 -266 343q-135 165 -183 260v-602
q0 -48 24 -77t57 -46h-368q34 17 58 46t24 77v623q-364 0 -566.5 -24t-227.5 -58v185q25 -34 227.5 -58t566.5 -24v542q0 48 -24 77t-58 46h559q164 0 289 -39t195 -133.5t70 -260.5q0 -111 -41.5 -190.5t-110.5 -131t-153 -75.5t-170 -24q-155 0 -253 59q70 -65 197 -162
q61 -47 452 -358q103 -83 204 -117zM1734 637q97 0 175 44.5t123.5 130.5t45.5 211q0 110 -32 198t-104 139.5t-193 51.5h-272v-596q0 -45 29.5 -86t87 -67t140.5 -26z" />
    <glyph glyph-name="GA" unicode="GA" horiz-adv-x="2487" 
d="M787 -1q-149 0 -282.5 49t-235.5 144t-160.5 232t-58.5 312q0 176 55 312.5t152 231.5t226.5 144t278.5 49q130 0 234.5 -23.5t177.5 -46.5l42 -12l-61 -262q-46 149 -154.5 236t-238.5 87q-245 0 -370 -204q-117 -190 -117 -512q0 -204 57.5 -366t171.5 -256t283 -94
q101 0 186 27.5t146 75.5q128 103 128 251q0 159 -95 245t-271 86h-265v21h792l287 726h83l530 -1316q44 -93 129 -136h-391q19 14 34 38.5t15 56.5q0 21 -9 45l-230 565h-434l-178 -452q-35 -85 -113 -146q-64 -51 -152 -79.5t-192 -28.5zM1267 368l133 337h-366
q111 -33 172 -117t61 -214v-6zM1847 726l-212 517l-205 -517h417z" />
    <glyph glyph-name="OO" unicode="OO" horiz-adv-x="1962" 
d="M1220 -21q-125 0 -235 38q-110 -38 -235 -38q-199 0 -356.5 93t-248.5 258.5t-91 385.5q0 219 91 385t248.5 259t356.5 93q125 0 235 -38q110 38 235 38q199 0 356.5 -93t248.5 -259t91 -385q0 -220 -91 -385.5t-248.5 -258.5t-356.5 -93zM750 0q103 0 181 38
q-123 54 -214 151.5t-141.5 231t-50.5 295.5t50.5 295.5t141.5 231t214 151.5q-78 38 -181 38q-242 0 -362 -212q-109 -191 -109 -504q0 -314 109 -504q120 -212 362 -212zM985 69q124 91 179.5 263.5t55.5 383.5t-55.5 383.5t-179.5 262.5q-124 -90 -179.5 -262.5
t-55.5 -383.5t55.5 -383.5t179.5 -263.5zM1220 0q242 0 363 212q108 190 108 504q0 313 -108 504q-121 212 -363 212q-103 0 -181 -38q123 -54 214 -151.5t141.5 -231t50.5 -295.5t-50.5 -295.5t-141.5 -231t-214 -151.5q78 -38 181 -38z" />
    <glyph glyph-name="TT" unicode="TT" horiz-adv-x="1847" 
d="M1388 0h-369q34 18 58 46.5t24 76.5v1289h-355v-1289q0 -48 24 -76.5t57 -46.5h-368q34 18 58 46.5t24 76.5v1289h-82q-71 0 -143 -34.5t-132 -78.5t-97 -78l-37 -34l61 245h1624l62 -245l-37 34q-37 34 -97 78t-132 78.5t-143 34.5h-82v-1289q0 -48 24 -76.5t58 -46.5z
" />
    <glyph glyph-name="ab" unicode="ab" horiz-adv-x="2002" 
d="M1094 0h-21v545l193 202v-561q0 -69 -56 -127.5t-116 -58.5zM656 197v310q-1 189 -43 296q-54 139 -198 139q-56 0 -118.5 -27.5t-113 -83.5t-74.5 -140l-20 5q38 129 135.5 197.5t206.5 68.5q76 0 150 -25.5t134.5 -80.5t96.5 -141t36 -208v-109zM1510 359l-112 112
l112 113l113 -113zM1555 -20q-80 0 -148.5 34t-110.5 97l15 15q82 -117 198 -117q68 0 125 50t91 152.5t34 259.5t-34 259.5t-91 153t-125 50.5q-95 0 -170 -81l-491 -514v-175q0 -48 24 -76.5t58 -46.5l-274 -41v137l-19 -19q-23 -26 -63 -57.5t-97 -56t-130 -24.5
q-75 0 -143.5 32t-111 97t-42.5 165q0 160 98.5 248t268.5 88q127 0 184 -74l-16 -12q-47 61 -141 61q-52 0 -98 -30t-75 -92t-29 -158q0 -127 49.5 -197t140.5 -70q60 0 109.5 30t81.5 64l450 472v706q0 48 -24 76.5t-57 46.5l274 41v-668l59 62q89 94 230 94
q72 0 142.5 -27.5t127.5 -86.5t92 -152.5t35 -224.5t-33.5 -224.5t-89.5 -152.5t-127 -86.5t-147 -27.5z" />
    <glyph glyph-name="ah" unicode="ah" horiz-adv-x="2067" 
d="M1351 1h-356q33 18 56.5 47t24.5 76v422l193 202v-624q1 -47 24.5 -76t57.5 -47zM659 198v310q-1 189 -43 296q-54 139 -198 139q-56 0 -118.5 -27.5t-113 -83.5t-74.5 -140l-20 5q38 129 135.5 197.5t206.5 68.5q76 0 150 -25.5t134.5 -80.5t96.5 -141t36 -208v-109z
M1513 360l-112 112l112 113l113 -113zM350 -19q-75 0 -143.5 32t-111 97t-42.5 165q0 160 98.5 247.5t268.5 87.5q127 0 184 -73l-16 -12q-47 61 -141 61q-52 0 -98 -30t-75 -92t-29 -158q0 -127 49.5 -197t140.5 -70q60 0 109.5 30t81.5 64l450 472v706q0 48 -24 76.5
t-57 46.5l274 41v-668q71 79 128.5 117.5t152.5 38.5q101 0 189.5 -47t143.5 -147.5t55 -260.5v-384q0 -48 24 -76.5t58 -46.5h-356q34 18 58 46.5t24 76.5v384q0 146 -32 240.5t-87 140.5t-123 46q-47 0 -91.5 -27t-95.5 -81l-466 -487v-175q0 -48 24 -76.5t58 -46.5
l-274 -41v137l-19 -19q-23 -26 -63 -57.5t-97 -56t-130 -24.5z" />
    <glyph glyph-name="ak" unicode="ak" horiz-adv-x="2010" 
d="M632 144q18 23 23 38v326q0 107 -17 205.5t-68.5 163t-155.5 66.5q-56 0 -118.5 -27.5t-113 -83.5t-74.5 -140l-20 5q40 133 139 199.5t203 66.5q76 0 150 -25.5t134.5 -80.5t96.5 -141t36 -208v-231zM346 -19q-75 0 -143.5 32t-111 97t-42.5 165q0 160 98.5 247.5
t268.5 87.5q127 0 184 -73l-16 -12q-47 61 -141 61q-52 0 -98 -30t-75 -92t-29 -158q0 -127 49.5 -197t140.5 -70q61 0 114 28l527 324v920q0 48 -24 76.5t-57 46.5l274 41v-966l162 113q165 114 269 203.5t108 117.5h140l-522 -360l206 -259q96 -120 187.5 -212.5
t143.5 -110.5q-125 0 -201 9t-133.5 47.5t-122.5 123.5l-237 304l-418 -256v-64q0 -48 24 -76.5t58 -46.5l-274 -41v109l-100 -61q-96 -68 -209 -68zM1347 1h-356q33 18 57 46.5t24 76.5v219l193 118v-337q1 -47 24.5 -76t57.5 -47z" />
    <glyph glyph-name="am" unicode="am" horiz-adv-x="2622" 
d="M1346 0h-356q33 18 56.5 47t24.5 76v422l193 202v-624q1 -47 24.5 -76t57.5 -47zM654 197v310q-1 189 -43 296q-54 139 -198 139q-56 0 -118.5 -27.5t-113 -83.5t-74.5 -140l-20 5q38 129 135.5 197.5t206.5 68.5q76 0 150 -25.5t134 -80.5t96.5 -141t36.5 -208v-109z
M345 -20q-76 0 -144 32t-110.5 97t-42.5 165q0 160 98.5 247.5t268.5 87.5q127 0 183 -73l-16 -12q-46 61 -140 61q-52 0 -98 -30t-75 -92t-29 -158q0 -127 49.5 -197t140.5 -70q59 0 109 30t81 64l451 472v215q0 48 -24 76.5t-57 46.5l274 41v-177q45 48 84 83t81.5 54
t102.5 19q118 0 203.5 -65.5t121.5 -207.5q9 121 79 197t189 76q100 0 182.5 -47t131.5 -147.5t49 -260.5v-384q0 -48 24 -76.5t58 -46.5h-356q34 18 58 46.5t24 76.5v384q0 427 -210 427q-61 0 -108.5 -39.5t-74.5 -105t-27 -143.5v-523q0 -48 24 -76.5t58 -46.5h-356
q34 18 58 46.5t24 76.5v384q0 427 -191 427q-80 0 -181 -108l-466 -487v-175q0 -48 24 -76.5t58 -46.5l-274 -41v137l-19 -19q-23 -26 -63 -57.5t-97 -56t-130 -24.5z" />
    <glyph glyph-name="an" unicode="an" horiz-adv-x="2067" 
d="M656 198v310q-1 189 -43 296q-54 139 -198 139q-56 0 -118.5 -27.5t-113 -83.5t-74.5 -140l-20 5q38 129 135.5 197.5t206.5 68.5q76 0 150 -25.5t134 -80.5t96.5 -141t36.5 -208v-109zM1348 1h-356q33 18 56.5 47t24.5 76v422l193 202v-624q0 -48 24 -76.5t58 -46.5z
M1510 360l-112 112l112 113l113 -113zM347 -19q-76 0 -144 32t-110.5 97t-42.5 165q0 160 98.5 247.5t268.5 87.5q127 0 183 -73l-16 -12q-46 61 -140 61q-52 0 -98 -30t-75 -92t-29 -158q0 -127 49.5 -197t140.5 -70q59 0 109 30t81 64l451 472v215q0 48 -24 76.5t-57 46.5
l274 41v-177q71 79 128.5 117.5t152.5 38.5q101 0 189.5 -47t143.5 -147.5t55 -260.5v-384q0 -48 24 -76.5t58 -46.5h-356q34 18 58 46.5t24 76.5v384q0 146 -32 240.5t-87 140.5t-123 46q-47 0 -91.5 -27t-95.5 -81l-466 -487v-175q0 -48 24 -76.5t58 -46.5l-274 -41v137
l-19 -19q-23 -26 -63 -57.5t-97 -56t-130 -24.5z" />
    <glyph glyph-name="ap" unicode="ap" horiz-adv-x="2002" 
d="M654 198v310q-1 189 -43 296q-54 139 -198 139q-56 0 -118.5 -27.5t-113 -83.5t-74.5 -140l-20 5q38 129 135.5 197.5t206.5 68.5q76 0 150 -25.5t134 -80.5t96.5 -141t36.5 -208v-109zM1346 -490h-356q33 18 57 46.5t24 76.5v913l193 202v-1115q0 -48 24 -76.5t58 -46.5
zM1553 -19q-81 0 -149 34t-110 97l15 15q82 -117 198 -117q68 0 125 50t91 152.5t34 259.5t-34 259.5t-91 153t-125 50.5q-95 0 -170 -81l-491 -514v-175q0 -48 24 -76.5t58 -46.5l-274 -41v137l-19 -19q-23 -26 -63 -57.5t-97 -56t-130 -24.5q-76 0 -144 32t-110.5 97
t-42.5 165q0 160 98.5 248t268.5 88q127 0 183 -74l-16 -12q-46 61 -140 61q-52 0 -98 -30t-75 -92t-29 -158q0 -127 49.5 -197t140.5 -70q59 0 109 30t81 64l451 472v215q0 48 -24 76.5t-57 46.5l274 41v-177l59 62q89 94 230 94q72 0 142.5 -27.5t127.5 -86.5t92 -152.5
t35 -224.5t-33.5 -224.5t-89.5 -152.5t-127 -86.5t-147 -27.5zM1508 360l-112 112l112 113l113 -113z" />
    <glyph glyph-name="ar" unicode="ar" horiz-adv-x="1807" 
d="M655 198v310q-1 189 -43 296q-54 139 -198 139q-56 0 -118.5 -27.5t-113 -83.5t-74.5 -140l-20 5q38 129 135.5 197.5t206.5 68.5q76 0 150 -25.5t134 -80.5t96.5 -141t36.5 -208v-109zM1347 1h-356q49 25 73 76q6 16 8 36v433l193 202v-624q0 -23 8 -47q20 -44 58 -66z
M346 -19q-75 0 -143 32t-111 97.5t-43 164.5q0 161 98.5 248t268.5 87q128 0 183 -73l-16 -12q-45 61 -140 61q-51 0 -97.5 -30t-75.5 -92t-29 -158q0 -127 49.5 -197t140.5 -70q59 0 109 30t81 64l451 472v215q0 48 -24 76.5t-57 46.5l274 41v-177q49 54 92.5 89t102.5 54
q48 16 92 16q15 0 29 -2q112 -18 175 -40l-38 -164q-12 58 -52 103q-62 59 -162 60q-106 0 -191 -96l-466 -487v-175q0 -48 24 -76.5t58 -46.5l-274 -41v137l-19 -19q-23 -26 -63.5 -57.5t-97 -56t-129.5 -24.5z" />
    <glyph glyph-name="ch" unicode="ch" horiz-adv-x="2007" 
d="M1288 0h-356q34 18 58 46.5t24 76.5v291l192 299v-590q0 -48 24 -76.5t58 -46.5zM496 -20q-205 3 -325.5 137.5t-120.5 353.5q0 147 57 257.5t157.5 172t231.5 61.5q69 0 139 -25.5t124 -80.5t79 -144l-20 -5q-22 78 -67 126t-100 70t-104 22q-95 0 -163.5 -59.5
t-105 -162t-36.5 -232.5t36.5 -232.5t105 -162t166.5 -59.5q64 0 135 38t131 124l198 309v822q0 48 -24 76.5t-58 46.5l274 41v-686l34 53q76 121 248 121q100 0 188.5 -47t144 -147.5t55.5 -260.5v-384q0 -48 24 -76.5t57 -46.5h-356q34 18 58 46.5t24 76.5v384
q0 146 -32 240.5t-87 140.5t-123 46q-118 -3 -184 -104l-426 -665q-59 -89 -140.5 -137t-194.5 -48z" />
    <glyph glyph-name="ck" unicode="ck" horiz-adv-x="1950" 
d="M496 -20q-202 0 -324 135.5t-122 355.5q0 147 57 257.5t158 172t231 61.5q70 0 139.5 -25.5t123.5 -81t79 -143.5l-20 -5q-22 78 -67 126t-100 70t-104 22q-95 0 -163.5 -59.5t-105 -162t-36.5 -232.5q0 -129 36.5 -232t105 -162.5t163.5 -59.5q49 0 108 25.5t106 65.5
l253 222v980q0 48 -24 76.5t-58 46.5l274 41v-975q51 46 68 60q96 81 189 176q65 68 112 126t47 78v3h194q-146 -68 -464 -346l217 -273q96 -120 187.5 -213t143.5 -110q-125 0 -199 8.5t-131.5 47t-126.5 124.5l-237 292v-1l-432 -378q-34 -30 -74 -55.5t-89.5 -41.5
t-114.5 -16zM1288 0h-356q34 18 58 46.5t24 76.5v153l192 168v-321q0 -48 24 -76.5t58 -46.5z" />
    <glyph glyph-name="cr" unicode="cr" horiz-adv-x="1761" 
d="M1288 0h-356q34 18 58 46.5t24 76.5v260l192 251v-511q0 -48 24 -76.5t58 -46.5zM496 -20q-202 0 -324 135.5t-122 355.5q0 147 57 257.5t158 172t231 61.5q70 0 139.5 -25.5t123.5 -81t79 -143.5l-20 -5q-22 78 -67 126t-100 70t-104 22q-95 0 -163.5 -59.5t-105 -162
t-36.5 -232.5q0 -129 36.5 -232t105 -162.5t163.5 -59.5q69 0 135 43.5t119 111.5l213 278v369q0 48 -24 76.5t-58 46.5l274 41v-282l97 128q43 53 76 83q50 44 123 44q17 0 33 -2q108 -18 171 -38l5 -1l-39 -165q-11 58 -51 103q-28 30 -64 45.5t-73 15.5
q-40 0 -76.5 -17.5t-63.5 -51.5q-17 -19 -107.5 -138t-419.5 -547q-77 -100 -154 -140t-167 -40z" />
    <glyph glyph-name="dr" unicode="dr" horiz-adv-x="1880" 
d="M736 196v1114q0 48 -24 76.5t-58 46.5l274 41v-1076zM1427 0h-356q74 40 82 111v434l192 202v-624q2 -47 25 -76t57 -47zM446 -20q-75 0 -146 27.5t-127.5 86.5t-89.5 152.5t-33 224.5t34.5 224.5t92 152.5t127.5 86.5t142 27.5q81 0 149 -34t111 -96l-16 -16
q-82 118 -198 118q-68 0 -125 -50.5t-91 -153t-34 -259.5t34 -259.5t91 -152.5t125 -50q54 0 104 31.5t106 91.5l451 472v215q0 48 -24 76.5t-58 46.5l274 41v-177q59 63 110 101t123 51q22 4 43 4q46 -1 73 -8q86 -18 136 -33l-38 -164q-12 59 -52 102q-51 51 -136 59
l-21 1q-86 0 -155 -59q-35 -34 -500 -521v-175q0 -48 24 -76.5t58 -46.5l-274 -41v137l-27 -28q-30 -33 -64 -62t-81.5 -48t-117.5 -19z" />
    <glyph glyph-name="eh" unicode="eh" horiz-adv-x="2007" 
d="M1288 0h-356q34 18 58 46.5t24 76.5v291l192 299v-590q0 -48 24 -76.5t58 -46.5zM496 -20q-205 3 -325.5 137.5t-120.5 353.5q0 147 60.5 257.5t165 171.5t238.5 62q88 0 162 -29t118 -90t44 -157q0 -82 -46 -142t-120 -92.5t-160 -32.5q-46 0 -106.5 11t-109.5 34l9 20
q47 -24 103 -34t104 -10q83 0 152.5 31.5t111.5 87.5t42 132q0 71 -35 124t-93 81.5t-125 28.5q-145 0 -234 -121.5t-89 -332.5q0 -194 80.5 -322t224.5 -132h3q64 0 135 38t131 124l198 309v822q0 48 -24 76.5t-58 46.5l274 41v-686l34 53q76 121 248 121q100 0 188.5 -47
t144 -147.5t55.5 -260.5v-384q0 -48 24 -76.5t57 -46.5h-356q34 18 58 46.5t24 76.5v384q0 146 -32 240.5t-87 140.5t-123 46q-118 -3 -184 -104l-426 -665q-59 -89 -140.5 -137t-194.5 -48z" />
    <glyph glyph-name="ek" unicode="ek" horiz-adv-x="1950" 
d="M1288 0h-356q34 18 57.5 47t24.5 76v153l192 168v-321q0 -48 24 -76.5t58 -46.5zM496 -20q-202 0 -324 135.5t-122 355.5q0 147 60.5 257.5t165.5 172t238 61.5q89 0 162.5 -29t117.5 -89.5t44 -157.5q0 -82 -45.5 -142t-120 -92.5t-160.5 -32.5q-46 0 -106.5 11
t-109.5 34l9 20q46 -24 102.5 -34t104.5 -10q83 0 152.5 31.5t111.5 88t42 131.5q0 72 -35.5 124.5t-93 81t-124.5 28.5q-145 0 -234 -121.5t-89 -332.5q0 -129 36.5 -232t105 -162.5t163.5 -59.5q49 0 108 25.5t106 65.5l253 222v980q0 48 -24 76.5t-58 46.5l274 41v-975
q51 46 68 60q96 81 189 176q65 68 112 126t47 78v3h194q-146 -68 -464 -346l217 -273q96 -120 187.5 -213t143.5 -110q-125 0 -199 8.5t-131.5 47t-126.5 124.5l-237 292v-1l-432 -378q-34 -30 -74 -55.5t-89.5 -41.5t-114.5 -16z" />
    <glyph glyph-name="er" unicode="er" horiz-adv-x="1791" 
d="M1288 0h-356q34 18 58 46.5t24 76.5v260l192 251v-511q0 -48 24 -76.5t58 -46.5zM496 -20q-202 0 -324 135.5t-122 355.5q0 147 60.5 257.5t165.5 172t238 61.5q89 0 162.5 -29t117.5 -89.5t44 -157.5q0 -82 -45.5 -142t-120 -92.5t-160.5 -32.5q-46 0 -106.5 11
t-109.5 34l9 20q46 -24 102.5 -34t104.5 -10q83 0 152.5 31.5t111.5 88t42 131.5q0 72 -35.5 124.5t-93 81t-124.5 28.5q-145 0 -234 -121.5t-89 -332.5q0 -129 36.5 -232t105 -162.5t163.5 -59.5q69 0 135 43.5t119 111.5l213 278v369q0 48 -24 76.5t-58 46.5l274 41v-282
l92 121q104 140 219 140q39 -1 49 -3q112 -19 175 -39l-38 -164q-17 74 -68.5 117t-128.5 43q-116 0 -191 -107l-498 -649q-77 -100 -154 -140t-167 -40z" />
    <glyph glyph-name="en" unicode="en" horiz-adv-x="2007" 
d="M1288 0h-356q34 18 58 46.5t24 76.5v291l192 299v-590q0 -48 24 -76.5t58 -46.5zM496 -20q-205 3 -325.5 137.5t-120.5 353.5q0 147 60.5 257.5t165.5 172t238 61.5q88 0 162 -29t118 -90t44 -157q0 -82 -46 -142t-120 -92.5t-160 -32.5q-46 0 -106.5 11t-109.5 34l9 20
q47 -24 103 -34t104 -10q83 0 152.5 31.5t111.5 87.5t42 132q0 71 -35 124t-93 81.5t-125 28.5q-145 0 -234 -121.5t-89 -332.5q0 -130 36.5 -232.5t105 -162t166.5 -59.5q64 0 135 38t131 124l198 309v331q0 48 -24 76.5t-58 46.5l274 41v-195l34 53q76 121 248 121
q100 0 188.5 -47t144 -147.5t55.5 -260.5v-384q0 -48 24 -76.5t57 -46.5h-356q34 18 58 46.5t24 76.5v384q0 146 -32 240.5t-87 140.5t-123 46q-118 -3 -184 -104l-426 -665q-59 -89 -140.5 -137t-194.5 -48z" />
    <glyph glyph-name="em" unicode="em" horiz-adv-x="2562" 
d="M1288 0h-356q34 18 58 46.5t24 76.5v291l192 299v-590q0 -48 24 -76.5t58 -46.5zM496 -20q-205 3 -325.5 137.5t-120.5 353.5q0 147 60.5 257.5t165.5 172t238 61.5q88 0 162 -29t118 -90t44 -158q0 -81 -46 -141t-120 -92.5t-160 -32.5q-46 0 -106.5 11t-109.5 34l9 20
q47 -24 103 -34t104 -10q83 0 152.5 31.5t111.5 87.5t42 132q0 71 -35 124t-93 81.5t-125 28.5q-145 0 -234 -121.5t-89 -332.5q0 -130 36.5 -232.5t105 -162t163.5 -59.5q64 0 136.5 38t132.5 124l198 309v331q0 48 -24 76.5t-58 46.5l274 41v-195l34 53q38 60 94 90.5
t140 30.5q118 0 204 -65.5t121 -207.5q10 121 79.5 197t188.5 76q101 0 183.5 -47t131 -147.5t48.5 -260.5v-384q0 -48 24 -76.5t58 -46.5h-356q34 18 58 46.5t24 76.5v384q0 427 -209 427q-62 0 -109.5 -39.5t-74.5 -105t-27 -143.5v-523q0 -48 24 -76.5t58 -46.5h-356
q34 18 58 46.5t24 76.5v384q0 427 -190 427q-52 0 -99 -27.5t-80 -76.5l-426 -665q-59 -89 -140.5 -137t-194.5 -48z" />
    <glyph glyph-name="ep" unicode="ep" horiz-adv-x="1942" 
d="M1288 -491h-356q34 18 58 46.5t24 76.5v782l192 299v-1081q0 -48 24 -76.5t58 -46.5zM1496 -20q-81 0 -149 34t-111 97l15 15q83 -117 201 -117q67 0 123 50t90.5 152.5t34.5 259.5t-36.5 259.5t-95.5 153t-127 50.5q-116 0 -184 -104l-426 -665q-59 -89 -140.5 -137
t-194.5 -48q-205 3 -325.5 137.5t-120.5 353.5q0 147 60.5 257.5t165.5 172t238 61.5q88 0 162 -29t118 -90t44 -158q0 -81 -46 -141t-120 -92.5t-160 -32.5q-46 0 -106.5 11t-109.5 34l9 20q47 -24 103 -34t104 -10q83 0 152.5 31.5t111.5 87.5t42 132q0 71 -35 124
t-93 81.5t-125 28.5q-145 0 -234 -121.5t-89 -332.5q0 -130 36.5 -232.5t105 -162t166.5 -59.5q64 0 135 38t131 124l198 309v331q0 48 -24 76.5t-58 46.5l274 41v-195l34 53q37 60 95.5 90.5t152.5 30.5q71 0 143 -27.5t130.5 -86.5t94.5 -152.5t36 -224.5t-33.5 -224.5
t-89.5 -152.5t-127 -86.5t-146 -27.5z" />
    <glyph glyph-name="ff" unicode="ff" horiz-adv-x="1233" 
d="M934 -1h-356q34 18 58 46.5t24 76.5v819h-274v-819q0 -48 24 -76.5t58 -46.5h-356q34 18 58 46.5t24 76.5v819h-144v20h144q0 116 31.5 192t81 120t106.5 62.5t109 18.5q63 0 105 -21t75 -60q32 67 80.5 106.5t102.5 56t103 16.5q81 0 129 -34t88 -96l-15 -16
q-73 126 -174 126q-74 0 -118.5 -64.5t-44.5 -206.5v-200h212v-20h-212v-819q0 -48 24 -76.5t57 -46.5zM660 961v98q0 117 33 193q-65 82 -144 82q-74 0 -118.5 -64.5t-44.5 -207.5v-101h274z" />
    <glyph glyph-name="fi" unicode="fi" horiz-adv-x="976" 
d="M926 -1h-356q34 18 58 46.5t24 76.5v696q0 48 -24 76.5t-58 46.5h-184v-819q0 -48 24 -76.5t58 -46.5h-356q34 18 58 46.5t24 76.5v819h-144v20h144v98q0 116 38.5 192t97 120.5t123 62.5t115.5 18q126 0 201 -57.5t75 -146.5q0 -43 -29.5 -73t-72.5 -30q-42 0 -72 30
t-30 73q0 42 30 72t72 30q29 0 53 -15q-26 38 -70 63t-102 25q-49 0 -104.5 -26t-94 -83.5t-38.5 -152.5v-200h458v-839q0 -48 24 -76.5t58 -46.5z" />
    <glyph glyph-name="fl" unicode="fl" horiz-adv-x="894" 
d="M844 0h-274q34 18 57.5 47t24.5 76v1134q0 86 -29 131t-74 45q-74 0 -118.5 -64.5t-44.5 -206.5v-200h212v-20h-212v-819q0 -48 24 -76.5t58 -46.5h-356q34 18 58 46.5t24 76.5v819h-144v20h144v98q0 116 31.5 192t81 120.5t106.5 62.5t109 18q73 0 128 1.5t115 8.5
l79 11v-1474z" />
    <glyph glyph-name="gi" unicode="gi" horiz-adv-x="1466" 
d="M510 -512q-202 0 -331 73t-129 192h22q0 -64 49.5 -119t144.5 -89t231 -34q110 0 201 26t145 71.5t54 104.5q0 68 -59.5 100.5t-183 40t-246.5 15.5q-160 12 -238 70t-78 143q7 131 187 163q-88 50 -138 134.5t-50 193.5q0 116 56 203.5t153.5 136.5t220.5 49
q126 0 226 -53q-43 48 -74.5 107.5t-31.5 138.5q0 88 54 150t143.5 94.5t195.5 32.5q141 0 220.5 -47.5t79.5 -136.5q0 -42 -30 -72t-72 -30t-72 30t-30 72q0 43 30 73t72 30q20 0 38 -8q-33 31 -94 50t-142 19q-160 0 -264.5 -69t-107.5 -188q0 -64 22.5 -115t57.5 -92.5
t71 -78.5l14 -14q59 -52 91 -123.5t32 -158.5q0 -116 -56 -203.5t-153 -136.5t-220 -49q-120 0 -215 47q-39 -7 -73.5 -18t-56 -28t-21.5 -42q0 -40 63.5 -59t189.5 -27l234 -17q177 -12 263 -74.5t86 -169.5q0 -101 -65.5 -169.5t-175 -103.5t-240.5 -35zM521 200
q91 0 140 50.5t68 135t19 187.5t-21 187.5t-71 135t-135 50.5q-86 0 -136 -50.5t-71 -135t-21 -187.5t19 -187.5t68.5 -135t140.5 -50.5zM1416 0h-356q34 18 58 46.5t24 76.5v696q0 47 -24 75.5t-58 46.5l274 41v-859q0 -48 24 -76.5t58 -46.5z" />
    <glyph glyph-name="gt" unicode="gt" horiz-adv-x="1614" 
d="M510 -511q-202 0 -331 73t-129 192h22q0 -64 49.5 -119t144.5 -89t231 -34q110 0 201 26t145 71.5t54 104.5q0 68 -59.5 100.5t-183 40t-246.5 15.5q-160 12 -238 70t-78 143q0 55 31 87.5t74 50t82 25.5q-88 50 -138 134.5t-50 193.5q0 116 56 203.5t153.5 136.5
t220.5 49q126 0 226 -52q-43 47 -74.5 108t-31.5 137q0 88 46.5 150t121 94.5t159.5 32.5q79 0 146.5 -32.5t109.5 -94.5t42 -150v-193h281v-21h-281v-670q0 -95 21.5 -145t51.5 -69t54 -19q25 0 54 13t55 45.5t42 90.5l20 -5q-21 -76 -58 -120.5t-83.5 -63t-95.5 -18.5
q-101 0 -167 53q-87 70 -87 243v665h-155v21q47 0 101.5 16.5t102.5 46.5t79 71t31 91q0 95 -79 160t-185 65q-83 0 -152.5 -31t-111.5 -88.5t-42 -137.5q0 -112 87 -216q29 -35 75 -81q60 -52 93 -124.5t33 -160.5q0 -116 -56 -203.5t-153 -136.5t-220 -49q-120 0 -215 47
q-39 -7 -73.5 -18t-56 -28t-21.5 -42q0 -40 63.5 -59t189.5 -27l234 -17q177 -12 263 -74.5t86 -169.5q0 -101 -65.5 -169.5t-175 -103.5t-240.5 -35zM521 201q91 0 140 50.5t68 135t19 187.5t-21 187.5t-71 135t-135 50.5q-86 0 -136 -50.5t-71 -135t-21 -187.5t19 -187.5
t68.5 -135t140.5 -50.5z" />
    <glyph glyph-name="it" unicode="it" horiz-adv-x="1161" 
d="M406 0h-356q34 17 58 46t24 76v696q0 48 -24 76.5t-58 46.5l274 41v-860q0 -47 24 -76t58 -46zM874 -20q-101 0 -167 53q-87 71 -87 244v665h-155v20q95 0 208 74q58 38 90 98.5t32 128.5l-1 22q-5 82 -42 161q-45 87 -117 128.5t-161 41.5q-112 0 -200 -58t-125 -155
l-2 -12q0 -14 10.5 -24.5t24.5 -10.5l10 2q14 4 30 4q42 0 72 -29.5t30 -71.5q-1 -43 -28.5 -72t-73.5 -32q-26 0 -47 12q-17 8 -29 21q-37 42 -37 109q0 50 21 110q38 104 132 166t212 62q191 0 296 -180q48 -86 48 -220q0 -30 -2 -55q-3 -55 -3 -109v-111h281v-20h-281
v-670q0 -95 22 -145.5t51.5 -69t53.5 -18.5q25 0 54 13t54.5 45.5t42.5 90.5l20 -5q-21 -76 -58 -121t-83.5 -63.5t-95.5 -18.5z" />
    <glyph glyph-name="st" unicode="st" horiz-adv-x="1434" 
d="M366 -20q-69 0 -134 21t-113 67.5t-69 122.5l19 5q20 -67 66.5 -108.5t107 -60t116.5 -18.5q87 0 148 38.5t61 102.5q0 70 -55 128t-188 144q-100 66 -146 100q-57 44 -87 92t-30 114q0 91 85.5 161t233.5 74q124 0 212 -66q-26 38 -49.5 79t-39.5 86t-16 94
q0 90 41.5 151.5t110 93.5t148.5 32t147.5 -32.5t109 -94.5t41.5 -150v-193h282v-21h-282v-670q0 -95 22 -145t51.5 -69t53.5 -19q25 0 54.5 13t55 45.5t42.5 90.5l19 -5q-21 -76 -58 -120.5t-83.5 -63t-94.5 -18.5q-102 0 -167 53q-87 70 -87 243v665h-156v21
q48 0 102.5 16.5t102.5 46.5t79 71t31 91q0 95 -79.5 160t-185.5 65q-122 0 -201 -70.5t-79 -186.5q0 -45 15.5 -87.5t38.5 -82.5t48 -77q58 -80 80 -157l-20 -5q-19 65 -62.5 106.5t-100 61t-111.5 19.5q-94 0 -141.5 -37t-47.5 -82q0 -43 26 -79t67.5 -67.5t89.5 -62.5
q131 -87 205 -146q67 -53 100.5 -105.5t33.5 -121.5q0 -66 -41 -123.5t-121.5 -93.5t-200.5 -36z" />
    <glyph glyph-name="th" unicode="th" horiz-adv-x="1817" 
d="M1098 1h-356q34 18 58 46.5t24 76.5v176l192 376v-552q0 -48 24 -76.5t58 -46.5zM460 -19q-103 0 -167 53q-87 70 -87 243v665h-156v21q82 0 178 55t150 129h20v-184h282v-21h-282v-670q0 -166 73 -214q28 -19 52 -19q44 0 91 39t90.5 98t75.5 123l44 87v925
q0 48 -24 76.5t-58 45.5l274 41v-708l21 40q43 86 109 121.5t152 35.5q100 0 188.5 -47.5t144 -148t55.5 -259.5v-384q0 -48 24 -76.5t57 -46.5h-356q34 18 58 46.5t24 76.5v384q0 146 -32 240.5t-87 140t-125 45.5q-120 0 -195 -140l-259 -511q-58 -118 -135 -199
q-97 -103 -200 -103z" />
    <glyph glyph-name="tb" unicode="tb" horiz-adv-x="1752" 
d="M844 1h-20v299l192 376v-489q0 -70 -56 -128t-116 -58zM1306 -19q-81 0 -149 34t-111 96l15 16q83 -118 198 -118q69 0 125.5 50.5t91 153t34.5 259.5t-37 259.5t-96.5 152.5t-128.5 50q-58 0 -108 -34.5t-86 -105.5l-259 -511q-58 -117 -135 -199q-97 -103 -200 -103
q-102 0 -167 53q-87 70 -87 243v665h-156v21q82 0 178 55t150 129h20v-184h282v-21h-282v-670q0 -168 73 -214q30 -19 54 -19q42 0 89 39t90.5 98t75.5 123l44 87v925q0 48 -24 76.5t-58 45.5l274 41v-708l21 40q43 86 107.5 121.5t150.5 35.5q72 0 144 -27.5t131 -87
t95.5 -152.5t36.5 -224q0 -132 -33.5 -225t-89.5 -152t-127 -86.5t-146 -27.5z" />
    <glyph glyph-name="ub" unicode="ub" horiz-adv-x="2131" 
d="M1223 1h-20v545l192 201v-560q0 -70 -55.5 -128t-116.5 -58zM785 197v625q0 46 -24 74.5t-57 45.5l274 41v-584zM1640 359l-113 113l113 112l112 -112zM1685 -19q-81 0 -149 34t-111 96l16 16q82 -118 197 -118q69 0 125.5 50.5t91 153t34.5 259.5t-34.5 259.5t-91 152.5
t-125.5 50q-94 0 -169 -80l-491 -515v-174q0 -48 24 -76.5t58 -46.5l-275 -41v137l-18 -20q-23 -25 -60 -57t-90 -56t-125 -24q-101 0 -182.5 47t-129.5 147.5t-48 259.5v385q0 47 -24 75.5t-58 46.5l275 41v-548q0 -145 31.5 -235t85.5 -131t122 -41q40 0 75 17t63.5 41
t49.5 46l451 473v706q0 48 -24 76.5t-58 45.5l274 41v-668l59 62q89 95 231 95q72 0 142 -27.5t127.5 -86.5t92 -152.5t34.5 -224.5q0 -132 -33 -225t-89.5 -152t-127.5 -86.5t-146 -27.5z" />
    <glyph glyph-name="uh" unicode="uh" horiz-adv-x="2197" 
d="M1477 1h-356q34 18 57.5 46.5t24.5 75.5v423l192 201v-623q0 -48 24 -76.5t58 -46.5zM1640 359l-113 113l113 112l112 -112zM492 -19q-101 0 -182.5 47t-129.5 147.5t-48 259.5v385q0 47 -24 75.5t-58 46.5l275 41v-548q0 -145 31.5 -235t85.5 -131t122 -41q40 0 75 17
t63.5 41t49.5 46l451 473v706q0 48 -24 76.5t-58 45.5l274 41v-668l59 62q42 45 94.5 70t128.5 25q100 0 189 -47.5t144 -148t55 -259.5v-384q0 -48 24 -76.5t58 -46.5h-357q34 18 58 46.5t24 76.5v384q0 146 -32 240.5t-86.5 140t-123.5 45.5q-52 0 -89.5 -21.5
t-71.5 -58.5l-491 -515v-174q0 -48 24 -76.5t58 -46.5l-275 -41v137l-18 -20q-23 -25 -60 -57t-90 -56t-125 -24zM785 197v625q0 46 -24 74.5t-57 45.5l274 41v-584z" />
    <glyph glyph-name="uk" unicode="uk" horiz-adv-x="2138" 
d="M785 160v660q0 46 -24.5 74.5t-57.5 45.5l274 41v-703zM1476 3h-356q34 18 58 46.5t24 76.5v219l192 118v-337q0 -48 24 -76.5t58 -46.5zM461 -21q-92 0 -166.5 47t-119 147.5t-44.5 260.5v384q0 47 -24 76t-57 46l274 41v-547q0 -146 34.5 -233t91.5 -125.5t126 -38.5
q28 0 51 8.5t47 22.5l528 325v920q0 48 -24 76.5t-58 45.5l274 41v-965l163 112q165 115 268.5 204.5t107.5 116.5h140l-522 -360l206 -259q96 -120 188 -212.5t143 -109.5q-125 0 -200.5 9t-133 47t-123.5 124l-237 304l-417 -257v-67q0 -48 24 -76.5t58 -46.5l-274 -41
v113l-100 -61q-39 -28 -92.5 -50t-131.5 -22z" />
    <glyph glyph-name="um" unicode="um" horiz-adv-x="2751" 
d="M785 197v625q0 46 -24 74.5t-58 45.5l275 41v-584zM1477 1h-356q34 18 58 46.5t24 76.5v422l192 201v-624q1 -47 24.5 -75.5t57.5 -46.5zM491 -19q-100 0 -181.5 47t-129.5 147.5t-48 259.5v385q0 47 -24 75.5t-58 46.5l275 41v-548q0 -145 31 -235t85.5 -131t122.5 -41
q40 0 75 17t63.5 41t49.5 46l451 473v215q0 47 -24 75.5t-58 46.5l274 41v-177l59 62q40 44 86.5 69.5t122.5 25.5q118 0 204 -66t121 -207q10 121 79.5 197t188.5 76q101 0 183.5 -47.5t131 -148t48.5 -259.5v-384q0 -48 24 -76.5t58 -46.5h-356q34 18 58 46.5t24 76.5v384
q0 426 -209 426q-62 0 -109.5 -39.5t-74.5 -105t-27 -143.5v-522q0 -48 24 -76.5t58 -46.5h-356q34 18 58 46.5t24 76.5v384q0 426 -190 426q-50 0 -86 -21.5t-70 -58.5l-491 -515v-174q0 -48 24 -76.5t57 -46.5l-274 -41v137l-18 -20q-23 -25 -60 -57t-90 -56t-126 -24z
" />
    <glyph glyph-name="un" unicode="un" horiz-adv-x="2196" 
d="M785 197v625q0 46 -24 74.5t-58 45.5l275 41v-584zM1477 1h-356q34 18 57.5 46.5t24.5 75.5v423l192 201v-623q0 -48 24 -76.5t58 -46.5zM491 -19q-100 0 -181.5 47t-129.5 147.5t-48 259.5v385q0 47 -24 75.5t-58 46.5l275 41l-1 -548q0 -145 31.5 -235t86 -131
t122.5 -41q40 0 75 17t63.5 41t49.5 46l451 473v215q0 47 -24 75.5t-58 46.5l274 41v-177l59 62q42 45 94.5 70t128.5 25q100 0 188.5 -47.5t143.5 -148t55 -259.5v-384q0 -48 24.5 -76.5t57.5 -46.5h-356q34 18 57.5 47t24.5 76v384q0 146 -32 240.5t-87 140t-123 45.5
q-52 0 -89.5 -21.5t-71.5 -58.5l-491 -515v-174q0 -48 24 -76.5t57 -46.5l-274 -41v137l-18 -20q-23 -25 -60 -57t-90 -56t-126 -24zM1640 359l-113 113l113 112l112 -112z" />
    <glyph glyph-name="up" unicode="up" horiz-adv-x="2131" 
d="M1640 359l-113 113l113 112l112 -112zM1477 -490h-356q34 18 58 46.5t24 76.5v913l192 201v-1114q0 -48 24 -76.5t58 -46.5zM1638 934q-52 0 -93.5 -21.5t-75.5 -58.5l-491 -515v-174q0 -48 24 -76.5t57 -46.5l-274 -41v137l-18 -20q-23 -25 -60 -57t-90 -56t-126 -24
q-100 0 -181.5 47t-129.5 147.5t-48 259.5v385q0 47 -24 75.5t-58 46.5l275 41v-548q0 -145 31 -235t85.5 -131t122.5 -41q40 0 75 17t63.5 41t49.5 46l451 473v215q0 47 -24 75.5t-58 46.5l274 41v-177l59 62q42 45 98.5 70t132.5 25q71 0 141.5 -27.5t128 -86.5t92 -152.5
t34.5 -224.5q0 -132 -33.5 -225t-89.5 -152t-127 -86.5t-146 -27.5q-81 0 -149 34t-111 96l15 16q83 -118 198 -118q69 0 125.5 50.5t91 153t34.5 259.5t-34.5 259.5t-91 152.5t-125.5 50zM785 197v625q0 46 -24 74.5t-58 45.5l275 41v-584z" />
    <glyph glyph-name="ur" unicode="ur" horiz-adv-x="1933" 
d="M785 197v625q0 46 -24 74.5t-58 45.5l275 41v-584zM1477 1h-356q32 17 57 45t25 78v422l192 201v-629q5 -76 82 -117zM491 -19q-100 0 -181.5 47t-129.5 147.5t-48 259.5v385q0 47 -24 76t-58 46l275 41v-548q0 -145 31 -235t85.5 -131t122.5 -41q36 0 71 17t65.5 41
t51.5 46l451 473v215q0 47 -24 76t-58 46l274 41v-177q67 74 129.5 115.5t153.5 41.5q32 0 61 -8q91 -17 144 -34l-38 -164q-12 59 -52 102q-56 56 -149 60h-14q-99 0 -179 -84l-473 -496v-174q0 -48 24 -76.5t57 -46.5l-274 -41v137q-40 -45 -78 -77q-93 -80 -216 -80z" />
    <glyph glyph-name=".notdef" horiz-adv-x="924" 
d="M50 0v1434h824v-1434h-824zM100 50q353 159 724 0v1334q-384 -118 -724 0v-1334zM369 334l57 58q11 10 20 10q10 0 22 -11l56 -60q9 -11 9 -20q0 -11 -10 -22l-56 -62q-14 -14 -21 -14q-11 0 -20 10l-61 71q-7 9 -7 18q0 10 11 22zM363 1191q53 30 112 30q92 0 148 -47.5
t56 -127.5q0 -49 -23 -98.5t-87 -129.5q-63 -80 -99 -132t-36 -99q0 -38 24 -133h-32q-35 97 -35 148q0 76 81.5 218t81.5 217q0 57 -33 90t-91 33q-8 0 -16 -1l32 -51q7 -12 5 -21q-2 -11 -14 -20l-66 -50q-17 -11 -24 -10q-10 2 -17 14l-47 81q-5 10 -3 19q1 10 28.5 32.5
t54.5 37.5z" />
    <glyph glyph-name="uni0000" 
 />
    <glyph glyph-name="uni0000" 
 />
    <glyph glyph-name="nonmarkingreturn" horiz-adv-x="682" 
 />
    <glyph glyph-name="space" unicode=" " horiz-adv-x="371" 
 />
    <glyph glyph-name="space" unicode="&#xa0;" horiz-adv-x="371" 
 />
    <glyph glyph-name="exclam" unicode="!" horiz-adv-x="325" 
d="M174 219h-22l-102 1207h225zM163 -6q-40 0 -68 27t-28 65t28 65t68 27t67.5 -26.5t28.5 -65.5q0 -38 -28 -65t-68 -27z" />
    <glyph glyph-name="quotedbl" unicode="&#x22;" horiz-adv-x="542" 
d="M176 1230h-48q0 22 -31 102q-17 44 -32 90t-15 80q0 45 30 76.5t72 31.5q43 0 72 -31t30 -77q0 -34 -14.5 -78t-31.5 -87q-13 -34 -22.5 -62t-9.5 -45zM413 1230h-47q0 22 -32 102q-17 44 -32 90t-15 80q0 45 30 76.5t73 31.5q42 0 71.5 -31t30.5 -77q0 -34 -14.5 -78
t-31.5 -87q-13 -34 -23 -62t-10 -45z" />
    <glyph glyph-name="numbersign" unicode="#" horiz-adv-x="1494" 
d="M676 0h-23l182 450h-390l-182 -450h-24l182 450h-371v21h379l200 495h-321v20h330l180 446h23l-180 -446h390l180 446h24l-181 -446h370v-20h-378l-200 -495h320v-21h-328zM843 471l200 495h-390l-200 -495h390z" />
    <glyph glyph-name="dollar" unicode="$" horiz-adv-x="779" 
d="M451 1h-21v228q-30 -3 -63 -3l-18 1v-226h-21v227q-96 6 -172 56t-106 153l20 5q28 -92 101.5 -136t156.5 -50v410q-83 53 -142.5 98t-91.5 93.5t-32 116.5q0 82 71 148.5t195 83.5v228h21v-226l32 1q25 0 49 -3v228h21v-231q85 -15 149 -65.5t90 -139.5l-20 -5
q-24 82 -85 126.5t-134 55.5v-364q140 -93 209 -165t69 -167q0 -86 -70 -156t-208 -91v-231zM328 894v279q-60 -14 -90.5 -45t-30.5 -67q0 -50 34.5 -90.5t86.5 -76.5zM360 255q37 0 70 8v332q-35 26 -81 57v-397h11zM430 825v353q-17 2 -34 2q-25 0 -47 -3v-297zM451 268
q53 16 85 49t32 79q0 50 -27 92t-90 91v-311z" />
    <glyph glyph-name="percent" unicode="%" horiz-adv-x="1814" 
d="M459 509q-105 0 -198.5 59.5t-152 165.5t-58.5 246t58.5 246t152 165.5t198.5 59.5t198.5 -59.5t152 -165.5t58.5 -246t-58.5 -246t-151 -165t-199.5 -60zM459 530q79 0 136.5 60.5t88 162t31.5 227.5q0 124 -30 226.5t-87.5 163t-138.5 60.5t-138.5 -60.5t-87.5 -163
t-30 -226.5t31 -226.5t88.5 -163t136.5 -60.5zM1355 -23q-106 0 -199.5 59.5t-152 165.5t-58.5 246t58.5 246t152 165.5t199.5 59.5q105 0 198.5 -59.5t152 -165.5t58.5 -246t-58.5 -246t-152 -165.5t-198.5 -59.5zM1355 -2q79 0 136 60.5t88 162t31 227.5q0 124 -30 226.5
t-87 163t-138 60.5q-82 0 -139 -60.5t-87 -163t-30 -226.5t31 -226.5t88.5 -163t136.5 -60.5zM529 -2h-23l778 1432h24z" />
    <glyph glyph-name="ampersand" unicode="&#x26;" horiz-adv-x="1303" 
d="M542 -22q-217 0 -354.5 112t-137.5 284q0 94 43 169.5t116 127.5t163 75q-182 273 -182 428q0 81 36.5 143.5t111.5 98.5t189 36q149 0 242.5 -86.5t93.5 -220.5q0 -88 -39 -156t-105.5 -118t-152.5 -86q42 -57 80 -105l296 -376q22 68 22 139v19q0 47 -24 76t-58 46h184
q-34 -17 -58 -46t-24 -76v-19q0 -74 -28 -157l80 -102q37 -49 97.5 -107.5t119.5 -77.5h-72q-75 0 -134.5 8t-106.5 32t-87 75q-55 -61 -133 -98.5t-178 -37.5zM554 802q65 41 101 98t49.5 124.5t13.5 141.5q0 85 -25.5 144.5t-68 90t-92.5 30.5q-83 0 -131.5 -58.5
t-48.5 -154.5q0 -57 29.5 -127.5t75.5 -145t97 -143.5zM542 -1q91 0 167 35.5t131 95.5l-287 369q-64 79 -165 224q-64 -37 -103 -117t-39 -194q0 -116 31 -209.5t96.5 -148.5t168.5 -55z" />
    <glyph glyph-name="quotesingle" unicode="'" horiz-adv-x="304" 
d="M176 1225h-48q0 22 -31 102q-17 44 -32 90t-15 80q0 45 30 76.5t72 31.5q43 0 72.5 -31.5t29.5 -76.5q0 -34 -14.5 -78t-31.5 -87q-13 -34 -22.5 -62t-9.5 -45z" />
    <glyph glyph-name="parenleft" unicode="(" horiz-adv-x="513" 
d="M463 -146q-66 0 -138.5 49.5t-134.5 153t-101 264t-39 383.5q0 222 39 382.5t101 264t134.5 153t138.5 49.5v-21q-51 0 -90 -65.5t-65 -180t-39.5 -264t-13.5 -318.5t13.5 -319t39.5 -264.5t65 -180t90 -65.5v-21z" />
    <glyph glyph-name="parenright" unicode=")" horiz-adv-x="513" 
d="M50 -146v21q52 0 91 65.5t65 180t39.5 264.5t13.5 319t-13.5 318.5t-39.5 264t-65 180t-91 65.5v21q67 0 139 -49.5t134 -153t101 -264t39 -382.5q0 -223 -39 -383.5t-101 -264t-134 -153t-139 -49.5z" />
    <glyph glyph-name="asterisk" unicode="*" horiz-adv-x="788" 
d="M607 1119l-141 18l-72 243l-72 -243l-141 -18l-26 139l212 142l-257 -5l-60 129l124 68l203 -160l-86 244l103 98l103 -98l-86 -244l203 160l124 -68l-60 -129l-256 5l211 -142z" />
    <glyph glyph-name="plus" unicode="+" horiz-adv-x="918" 
d="M467 299h-20v401h-397v21h397v397h20v-397h401v-21h-401v-401z" />
    <glyph glyph-name="comma" unicode="," horiz-adv-x="310" 
d="M115 -177l-10 19q94 49 116 144l1 9q0 16 -11 16q-4 0 -8 -2q-22 -10 -48 -10q-43 0 -74 29.5t-31 70.5t29 70.5t72 29.5q48 0 78.5 -35t30.5 -100q0 -83 -42 -146.5t-103 -94.5z" />
    <glyph glyph-name="hyphen" unicode="-" horiz-adv-x="837" 
d="M787 697h-737v21h737v-21z" />
    <glyph glyph-name="hyphen" unicode="&#xad;" horiz-adv-x="837" 
d="M787 697h-737v21h737v-21z" />
    <glyph glyph-name="period" unicode="." horiz-adv-x="309" 
d="M155 -1q-45 1 -75 30t-30 70q1 43 31 71.5t74 28.5q43 0 73.5 -29t30.5 -71q-1 -42 -31 -71t-73 -29z" />
    <glyph glyph-name="slash" unicode="/" horiz-adv-x="865" 
d="M73 0h-23l742 1432h23z" />
    <glyph glyph-name="zero" unicode="0" horiz-adv-x="1213" 
d="M603 -20q-239 0 -394.5 190.5t-162.5 546.5v9q0 233 73.5 385t199 226t281.5 74q157 0 283 -75t199 -229q76 -159 77 -399q0 -233 -73 -395.5t-198.5 -247.5t-284.5 -85zM603 0q83 0 150.5 61.5t116 163t74.5 227.5t26 255q0 136 -26 262q-24 120 -71 215t-115.5 151
t-157.5 56q-88 0 -156 -54.5t-114.5 -148t-70 -212.5t-23.5 -247q0 -138 27 -270q26 -127 73.5 -230.5t115 -166t151.5 -62.5z" />
    <glyph glyph-name="one" unicode="1" horiz-adv-x="529" 
d="M479 0h-368q34 18 58 46.5t24 75.5v1106q0 39 -42 62t-101 23v17q62 0 168 27.5t159 74.5h20v-1310q0 -47 24 -75.5t58 -46.5z" />
    <glyph glyph-name="two" unicode="2" horiz-adv-x="987" 
d="M876 1h-826v20q0 111 48.5 207.5t124 185t160 173.5t159.5 172.5t122.5 183t50.5 204.5q0 111 -69 186.5t-182 75.5q-118 0 -210.5 -87t-137.5 -236l-61 262l47 14q72 23 167.5 45.5t203.5 22.5q206 -3 326.5 -106t120.5 -274q-4 -125 -76.5 -234.5t-182.5 -205.5
t-226 -184q-94 -71 -174 -138.5t-129.5 -133.5t-49.5 -133h405q71 0 149.5 40.5t146.5 92.5t111 93l43 40z" />
    <glyph glyph-name="three" unicode="3" horiz-adv-x="1031" 
d="M467 -19q-108 0 -203.5 22.5t-167.5 45.5l-47 14l61 262q45 -149 141.5 -236t215.5 -87q85 0 145.5 39t99 99t56.5 127t18 123q0 137 -66 228q-83 116 -272 116v21q149 0 214 104q53 86 53 233q0 87 -27 154t-84 105t-144 38q-119 0 -211.5 -87t-136.5 -236l-62 262
l47 13q71 23 164 44.5t198 23.5v1h9v-1q206 -2 323.5 -86t117.5 -239q0 -134 -77 -220.5t-230 -116.5v-5q180 -36 279 -134t99 -218q0 -183 -138.5 -296t-374.5 -113z" />
    <glyph glyph-name="four" unicode="4" horiz-adv-x="1009" 
d="M922 1h-368q33 18 57 46.5t24 75.5v189h-585v21l419 1100h238l-636 -1100h564v640h205v-640h119v-21h-119v-189q0 -47 24 -75.5t58 -46.5z" />
    <glyph glyph-name="five" unicode="5" horiz-adv-x="1003" 
d="M452 -17q-103 0 -189 21.5t-155 43.5l-58 18l61 266q45 -152 133.5 -240t207.5 -88q142 0 219 102t77 292q0 123 -32.5 219.5t-99 152t-168.5 55.5q-66 0 -131 -26t-115 -63t-75 -71h-21l38 765h670l80 -326l-25 25q-26 24 -75.5 55.5t-123 55.5t-168.5 24h-347l-24 -544
q30 25 76 54t107 50t134 21q153 0 266.5 -60t176 -162t62.5 -225q0 -124 -58.5 -217t-170.5 -145.5t-272 -52.5z" />
    <glyph glyph-name="six" unicode="6" horiz-adv-x="1112" 
d="M601 -19q-175 3 -298 103.5t-189 268.5t-66 365q0 148 46.5 274t125.5 219.5t180 146t210 52.5q126 0 217.5 -26t164.5 -56l-61 -262q-45 149 -131 236t-190 87q-89 0 -157.5 -56t-116 -150.5t-72 -215t-24.5 -249.5q0 -69 5 -135q31 131 129.5 215t237.5 84
q77 0 156.5 -27t145 -82t106 -140t40.5 -202q0 -127 -64 -229t-169 -161.5t-226 -59.5zM600 2q91 1 155.5 64.5t99 167t34.5 222.5q0 129 -40 216.5t-108 132.5t-152 45q-98 0 -173 -54t-117.5 -136.5t-42.5 -171.5h-1q18 -141 61.5 -250.5t114 -172.5t169.5 -63z" />
    <glyph glyph-name="seven" unicode="7" horiz-adv-x="926" 
d="M506 1h-218l518 1268h-364q-95 0 -168.5 -24t-123 -54.5t-75.5 -54.5l-25 -25l80 322h746v-17z" />
    <glyph glyph-name="eight" unicode="8" horiz-adv-x="1053" 
d="M537 -19q-214 0 -346 104t-140 275v5q0 71 47.5 134.5t124.5 114.5t170 85q-72 58 -132 120.5t-96 131t-36 144.5q0 139 110.5 228t286.5 89q112 0 200 -40t139 -114.5t51 -177.5q0 -82 -40 -144.5t-104.5 -107t-142.5 -70.5q95 -69 179 -138.5t138 -138.5
q57 -72 58 -145q0 -94 -55.5 -175t-160 -130.5t-251.5 -49.5zM602 778q82 54 126.5 144t44.5 193q0 123 -75.5 199.5t-193.5 76.5q-108 0 -179 -53.5t-71 -144.5q0 -76 50 -146t129 -136.5t169 -132.5zM537 2q144 0 234.5 73t90.5 188q0 57 -37 105t-98 94t-134 94
q-89 57 -179 126q-63 -33 -101.5 -81.5t-55.5 -103.5t-17 -106q2 -119 37 -208q32 -85 96.5 -133t163.5 -48z" />
    <glyph glyph-name="nine" unicode="9" horiz-adv-x="1112" 
d="M499 -20q-84 0 -152 12.5t-124.5 31.5t-105.5 38l61 262q45 -149 131 -236t190 -87q88 0 156 55t115 148t71.5 212t24.5 248q0 74 -5 145q-31 -130 -129.5 -214t-237.5 -84q-77 0 -156 26.5t-145 81.5t-106.5 140t-40.5 202q0 127 64 229t169 162t226 60q174 0 298 -93
t189.5 -258.5t65.5 -385.5v-7q0 -147 -46.5 -272.5t-125 -218.5t-179 -145t-208.5 -52zM517 543q98 0 173 54t117.5 137.5t42.5 170.5h1q-18 141 -61.5 250.5t-114 172.5t-169.5 63q-91 0 -155.5 -64t-99 -167.5t-34.5 -222.5q0 -129 40 -217t107.5 -132.5t152.5 -44.5z" />
    <glyph glyph-name="colon" unicode=":" horiz-adv-x="309" 
d="M154 1009q-43 0 -73.5 29t-30.5 71q0 41 30.5 70.5t73.5 29.5t73 -29t32 -71q0 -42 -31 -71t-74 -29zM154 226q-43 0 -73.5 29.5t-30.5 70.5q0 42 30.5 71t73.5 29t73 -28.5t32 -71.5q0 -41 -31 -70.5t-74 -29.5z" />
    <glyph glyph-name="semicolon" unicode=";" horiz-adv-x="312" 
d="M154 1009q-43 0 -73.5 29t-30.5 71q0 41 30.5 70.5t73.5 29.5t73 -29t32 -71q0 -42 -31 -71t-74 -29zM117 50l-11 19q44 23 77 60q36 43 41 93q0 16 -12 16l-8 -2q-22 -10 -48 -10q-43 0 -73.5 29.5t-30.5 70.5t29 70.5t72 29.5q47 0 78 -35t31 -100q0 -83 -42 -146.5
t-103 -94.5z" />
    <glyph glyph-name="semicolon" unicode="&#x37e;" horiz-adv-x="312" 
d="M154 1009q-43 0 -73.5 29t-30.5 71q0 41 30.5 70.5t73.5 29.5t73 -29t32 -71q0 -42 -31 -71t-74 -29zM117 50l-11 19q44 23 77 60q36 43 41 93q0 16 -12 16l-8 -2q-22 -10 -48 -10q-43 0 -73.5 29.5t-30.5 70.5t29 70.5t72 29.5q47 0 78 -35t31 -100q0 -83 -42 -146.5
t-103 -94.5z" />
    <glyph glyph-name="less" unicode="&#x3c;" horiz-adv-x="836" 
d="M786 406l-736 287v22l736 287v-23l-708 -275l708 -275v-23z" />
    <glyph glyph-name="equal" unicode="=" horiz-adv-x="918" 
d="M868 564h-818v20h818v-20zM868 867h-818v20h818v-20z" />
    <glyph glyph-name="greater" unicode="&#x3e;" horiz-adv-x="836" 
d="M50 406v23l708 275l-708 275v23l736 -287v-22z" />
    <glyph glyph-name="question" unicode="?" horiz-adv-x="885" 
d="M406 -2q-40 0 -68.5 27t-28.5 65t28.5 65t68.5 27q39 0 67.5 -27t28.5 -65t-28.5 -65t-67.5 -27zM412 223h-20q0 101 18.5 183t47 153.5t61 139t61 138.5t47 152.5t18.5 181.5q0 72 -19 131t-61.5 93.5t-113.5 34.5q-118 0 -207 -87t-133 -236l-61 262l58 18
q68 22 154.5 43t188.5 21q106 0 193 -42t139 -119t52 -180q0 -102 -32.5 -183.5t-82.5 -151t-105 -134.5q-53 -62 -98.5 -125.5t-75 -135t-29.5 -157.5z" />
    <glyph glyph-name="at" unicode="@" horiz-adv-x="1711" 
d="M869 -148q-170 0 -319 58.5t-261 169t-175.5 267.5t-63.5 355q0 197 73 354t194 267.5t270.5 169t302.5 58.5q236 0 409 -107.5t267.5 -293t94.5 -421.5q0 -148 -53.5 -270.5t-137 -195.5t-172.5 -73q-96 0 -165.5 38t-87.5 118q-20 -33 -54 -69t-81 -61.5t-108 -25.5
q-94 0 -177 49.5t-135 146t-52 238.5q0 36 4 75q29 241 153 377.5t290 136.5q66 0 114 -24.5t77 -66.5q-11 -9 -20 -19q-26 37 -65 59.5t-87 22.5q-83 0 -140.5 -65t-92 -174.5t-48.5 -246.5q-7 -71 -7 -134q0 -101 20 -178t63.5 -120.5t113.5 -43.5q58 0 105 26t79 60.5
t45 64.5l-1 17q4 59 69 667q11 66 70.5 110.5t103.5 44.5h23q-87 -822 -87 -866q0 -57 18.5 -90.5t68.5 -33.5q77 0 153 65.5t126 179t50 258.5q0 233 -91.5 414.5t-259 285.5t-395.5 104q-193 0 -343.5 -117.5t-236.5 -324.5t-86 -476q0 -201 51 -342t140 -229
t205.5 -128.5t248.5 -40.5q138 0 263 43t228 120l12 -15q-226 -168 -503 -168z" />
    <glyph glyph-name="A" unicode="A" horiz-adv-x="1476" 
d="M1426 0h-391q19 14 34 39t15 57q0 21 -9 44l-118 288h-627q-99 -315 -99 -402q0 -21 6 -26h-187q44 27 160.5 270.5t257.5 600.5l222 562h83l524 -1297q45 -93 129 -136zM948 448l-318 775l-139 -351q-92 -233 -154 -424h611z" />
    <glyph glyph-name="B" unicode="B" horiz-adv-x="1266" 
d="M684 0h-634q34 18 58 46.5t24 76.5v1187q0 48 -24 76.5t-58 46.5h510q164 0 289 -29t195 -105t70 -215q0 -162 -128 -259q-106 -81 -263 -110q46 -14 93 -27q100 -26 191 -63t149 -102t60 -178q0 -131 -64.5 -206.5t-184 -107t-283.5 -31.5zM701 723q42 12 85 48.5
t73 107t30 185.5q0 110 -31.5 188t-104 119t-193.5 41h-223v-340q0 -105 44 -165.5t116 -98.5q90 -47 204 -85zM684 21q307 0 307 310q-4 110 -54 184.5t-128 123.5t-166 81q-98 34 -182.5 83t-123.5 141v-923h347z" />
    <glyph glyph-name="C" unicode="C" horiz-adv-x="1285" 
d="M765 -21q-150 0 -279 49t-226 143.5t-152 231.5t-55 312q0 176 55 313t152 231.5t226.5 143.5t279.5 49q131 0 236.5 -24t179.5 -47l37 -11l-61 -262q-46 150 -154.5 237t-238.5 87q-244 0 -370 -205q-117 -190 -117 -512q0 -321 117 -511q126 -205 370 -205
q193 3 325.5 105t159.5 262l20 -3q-29 -169 -167 -275t-338 -109z" />
    <glyph glyph-name="D" unicode="D" horiz-adv-x="1389" 
d="M627 0h-577q34 18 58 46.5t24 76.5v1187q0 48 -24 76.5t-58 46.5h577q150 0 279.5 -46t226.5 -136.5t151.5 -224.5t54.5 -310q0 -234 -90.5 -393.5t-251.5 -241t-370 -81.5zM627 21q157 0 265.5 86.5t165 243t56.5 365.5q0 210 -51 366.5t-159 243t-277 86.5h-290v-1391
h290z" />
    <glyph glyph-name="E" unicode="E" horiz-adv-x="1144" 
d="M1033 0h-983q34 18 58 46.5t24 76.5v1187q0 47 -24 76t-58 46h962l61 -245q-54 54 -133 112q-154 113 -276 113h-327v-645q273 0 425 24t172 58v-184q-20 34 -171.5 58t-425.5 24v-727h307q71 0 149.5 40.5t146.5 92.5t111 93l43 40z" />
    <glyph glyph-name="F" unicode="F" horiz-adv-x="1107" 
d="M419 0h-369q34 18 58 46.5t24 76.5v1187q0 47 -24 76t-58 46h946l61 -245q-54 54 -134 112q-153 113 -275 113h-311v-727q273 0 425 24t172 58v-184q-20 34 -171.5 58t-425.5 24v-542q0 -48 24 -76.5t58 -46.5z" />
    <glyph glyph-name="G" unicode="G" horiz-adv-x="1348" 
d="M672 -19q-189 0 -329 86.5t-216.5 251t-76.5 398.5q0 176 55 313t152.5 231.5t227 143.5t278.5 49q131 0 236.5 -24t179.5 -47l38 -11l-62 -262q-46 150 -154.5 237t-237.5 87q-245 0 -371 -205q-116 -190 -116 -512q0 -204 43 -366t131.5 -256t221.5 -94q186 0 304 138
q101 118 118 325v264h-328v20h532v-747h-20q-49 0 -91 37t-67.5 107.5t-25.5 171.5v15q-32 -123 -102 -206q-126 -145 -320 -145z" />
    <glyph glyph-name="H" unicode="H" horiz-adv-x="1426" 
d="M1376 0h-368q34 18 58 46.5t24 76.5v583h-753v-583q0 -48 24 -76.5t58 -46.5h-369q34 18 58 46.5t24 76.5v1187q0 48 -24 76.5t-58 46.5h369q-34 -18 -58 -46.5t-24 -76.5v-583h753v583q0 48 -24 76.5t-58 46.5h368q-34 -18 -58 -46.5t-24 -76.5v-1187q0 -48 24 -76.5
t58 -46.5z" />
    <glyph glyph-name="I" unicode="I" horiz-adv-x="510" 
d="M440 0h-369q34 18 58 46.5t24 76.5v1187q0 48 -24 76.5t-58 46.5h369q-34 -18 -58 -46.5t-24 -76.5v-1187q0 -48 24 -76.5t58 -46.5z" />
    <glyph glyph-name="J" unicode="J" horiz-adv-x="1002" 
d="M385 0q-142 0 -232 106t-103 279l20 1q13 -168 97 -267t218 -99q136 0 208.5 147.5t72.5 454.5v708q0 48 -24 76.5t-58 46.5h368q-34 -18 -58 -46.5t-24 -76.5v-708q0 -234 -60.5 -370t-169.5 -194t-255 -58z" />
    <glyph glyph-name="K" unicode="K" horiz-adv-x="1343" 
d="M1293 0h-489q19 17 19 45v17q0 15 -31 61l-172 222q-59 77 -89 138t-40 113t-10 105q0 63 27 115q-87 -86 -171 -171v-522q0 -48 24 -76.5t58 -46.5h-369q34 18 58 46.5t24 76.5v1187q0 48 -24 76.5t-58 46.5h369q-34 -18 -58 -46.5t-24 -76.5v-634l1 1q343 349 507 542
q150 179 150 210l-1 4h194q-47 -21 -221 -179t-396 -376q-60 -75 -60 -156q0 -61 49.5 -134t163.5 -167l383 -314q84 -68 186 -107z" />
    <glyph glyph-name="L" unicode="L" horiz-adv-x="1128" 
d="M1017 0h-967q34 18 58 46.5t24 76.5v1187q0 48 -24 76.5t-58 46.5h369q-34 -18 -58 -46.5t-24 -76.5v-1289h291q71 0 149.5 40.5t146.5 92.5t111 92l43 41z" />
    <glyph glyph-name="M" unicode="M" horiz-adv-x="1581" 
d="M1531 0h-368q33 18 57 46.5t24 76.5v1159l-523 -1282h-43l-525 1239v-367q0 -350 24 -597.5t58 -274.5h-185q34 27 58 275t24 597v416l-82 145h242l505 -1192l486 1192h248q-34 -18 -58 -46.5t-24 -76.5v-1187q0 -48 24 -76.5t58 -46.5z" />
    <glyph glyph-name="N" unicode="N" horiz-adv-x="1389" 
d="M1257 0h-41l-1003 1238v-366q0 -350 24 -597.5t58 -274.5h-184q34 27 58 275t24 597v392q-29 38 -68 80q-33 37 -75 89h269l918 -1129v257q0 348 -24 596t-58 276h184q-34 -27 -58 -274.5t-24 -597.5v-561z" />
    <glyph glyph-name="O" unicode="O" horiz-adv-x="1492" 
d="M748 -20q-199 0 -356.5 92.5t-248.5 258.5t-91 385q0 220 91 386t248.5 258.5t356.5 92.5t356.5 -92.5t248.5 -258.5t91 -386q0 -219 -91 -385t-248.5 -258.5t-356.5 -92.5zM748 0q241 0 362 212q109 191 109 504q0 314 -109 504q-121 213 -362 213t-362 -213
q-109 -190 -109 -504q0 -313 109 -504q121 -212 362 -212z" />
    <glyph glyph-name="P" unicode="P" horiz-adv-x="1213" 
d="M419 0h-369q34 18 58 46.5t24 76.5v1187q0 48 -24 76.5t-58 46.5h559q164 0 289 -49.5t195 -154.5t70 -270q0 -162 -60 -266t-158 -154t-212 -50q-106 0 -186 37.5t-133 100.5t-77 143v-647q0 -48 24 -76.5t58 -46.5zM639 547q106 0 172 56.5t96.5 155t30.5 223.5
q0 117 -31.5 214.5t-104 156.5t-193.5 59h-272v-471q0 -126 41 -214t109.5 -134t151.5 -46z" />
    <glyph glyph-name="Q" unicode="Q" horiz-adv-x="1600" 
d="M1492 -203h-189q-75 0 -142 28t-126.5 73.5t-113.5 101.5q-82 -19 -171 -19q-199 0 -356.5 92.5t-248.5 258.5t-91 385q0 220 91 386t248.5 258.5t356.5 92.5t356.5 -92.5t248.5 -258.5t91 -386q0 -182 -63.5 -328t-176.5 -244t-262 -139q56 -56 116 -101
q53 -38 84.5 -49t69.5 -11q42 0 99.5 36.5t112.5 83t91 82.5l37 36zM750 1q81 0 146 24q-43 46 -84 92q-73 82 -143 148q-100 96 -206 102q-38 -2 -60 -21.5t-22 -57.5q0 -40 24 -88.5t57 -84.5q113 -114 288 -114zM917 33q161 73 232.5 256t71.5 421q0 153 -26.5 283
t-82.5 229q-121 212 -362 212q-127 0 -216.5 -57t-145.5 -155.5t-82.5 -228.5t-26.5 -276q0 -271 84 -455q-2 13 -2 26q0 45 28.5 71.5t73.5 27.5q59 0 114 -29q100 -55 250 -228z" />
    <glyph glyph-name="R" unicode="R" horiz-adv-x="1338" 
d="M1288 0h-490q20 17 20 45q0 30 -32 78l-172 222q-219 294 -274 505l-3 10v-737q0 -48 24 -76.5t58 -46.5h-369q34 18 58 46.5t24 76.5v1187q0 48 -24 76.5t-58 46.5h559q164 0 289 -39.5t195 -133.5t70 -260q0 -148 -60 -241t-158 -136.5t-212 -43.5q-145 0 -249 74
q100 -119 235 -232l383 -314q83 -68 186 -107zM639 637q145 0 222 99t77 287q0 110 -31.5 198t-104 139.5t-193.5 51.5h-272v-380q0 -121 41 -209.5t109.5 -137t151.5 -48.5z" />
    <glyph glyph-name="S" unicode="S" horiz-adv-x="1048" 
d="M530 -20q-213 0 -477 91l62 286q25 -98 86 -178.5t147 -129.5t182 -49t156.5 40.5t89 102t28.5 125.5q0 83 -47.5 149.5t-128.5 129.5t-185 131q-116 77 -200 143t-129.5 139t-45.5 175q0 91 50.5 162.5t151.5 113.5t251 42q123 0 215 -21.5t160 -44.5l54 -16l-61 -262
q-45 150 -142 237t-226 87q-130 0 -205 -62t-75 -160q0 -67 41 -124t103.5 -107.5t129.5 -97.5q34 -23 65.5 -46t59.5 -44q114 -82 194.5 -150t123.5 -139.5t43 -167.5q0 -98 -49 -178.5t-153 -128.5t-269 -48z" />
    <glyph glyph-name="T" unicode="T" horiz-adv-x="1287" 
d="M827 0h-368q34 18 58 46.5t24 76.5v1289h-82q-71 0 -143 -34t-132 -78t-97 -79l-37 -34l61 246h1064l62 -246q-55 54 -134 113q-154 112 -276 112h-81v-1289q0 -48 24 -76.5t57 -46.5z" />
    <glyph glyph-name="U" unicode="U" horiz-adv-x="1348" 
d="M673 -20q-158 0 -280.5 63.5t-192 203t-69.5 365.5v698q0 48 -24 76.5t-58 46.5h368q-34 -18 -58 -46.5t-24 -76.5v-698q0 -152 38.5 -262t100.5 -180t138.5 -103.5t152.5 -33.5q101 0 199 59t162 184.5t69 324.5q-3 342 -26 574t-56 258h184q-34 -27 -58 -274.5
t-24 -597.5v51q0 -219 -69.5 -359t-192 -206.5t-280.5 -66.5z" />
    <glyph glyph-name="V" unicode="V" horiz-adv-x="1361" 
d="M715 0h-69l-471 1292q-41 96 -125 141h393q-21 -15 -37.5 -41.5t-16.5 -60.5q0 -19 7 -41l380 -1062l122 333q110 306 172 535t62 306q0 25 -7 31h186q-51 -61 -156.5 -290.5t-234.5 -581.5z" />
    <glyph glyph-name="W" unicode="W" horiz-adv-x="2104" 
d="M1458 0h-70l-332 914q-66 -160 -136 -353l-205 -561h-69l-471 1292q-41 96 -125 140h393q-21 -14 -37.5 -40.5t-16.5 -60.5q0 -20 7 -41l380 -1062l122 333q21 58 80 237l57 176l-35 98q-37 102 -58 155q-65 164 -149 205h539q-79 -85 -111 -167q-22 -49 -22 -101
q0 -36 11 -71l309 -865l121 333q111 306 173 535t62 305q0 26 -7 31h186q-51 -60 -156.5 -289.5t-235.5 -581.5z" />
    <glyph glyph-name="X" unicode="X" horiz-adv-x="1417" 
d="M1367 0h-424q32 28 32 71q0 30 -22 68l-327 516q-165 -231 -278.5 -416t-113.5 -229q0 -7 4 -10h-188q57 42 203.5 213.5t360.5 460.5l-379 595q-47 73 -94 110t-91 54h424q-32 -28 -32 -71q0 -31 22 -69l296 -466q153 216 255 384.5t102 211.5q0 7 -4 10h189
q-123 -89 -529 -626l409 -644q47 -72 94 -109t91 -54z" />
    <glyph glyph-name="Y" unicode="Y" horiz-adv-x="1389" 
d="M890 0h-368q34 18 58 46.5t24 76.5v513l-375 633q-44 73 -89.5 109.5t-89.5 53.5h416q-23 -18 -33 -54q-2 -9 -2 -19q0 -29 19 -65v-1l355 -598l25 43q154 264 248 466q77 165 77 213q0 10 -4 15h188q-71 -66 -200.5 -250t-321.5 -508l-9 -14v-537q0 -48 24 -76.5
t58 -46.5z" />
    <glyph glyph-name="Z" unicode="Z" horiz-adv-x="1254" 
d="M1143 0h-1068v21l868 1391h-483q-71 0 -143.5 -34.5t-132.5 -78.5t-97 -78l-37 -34l62 245h1076v-20l-868 -1391h434q71 0 149.5 40.5t146.5 92.5t111 92l43 41z" />
    <glyph glyph-name="bracketleft" unicode="[" horiz-adv-x="509" 
d="M454 -138h-404v1699h409v-21h-205v-1657h201z" />
    <glyph glyph-name="backslash" unicode="\" horiz-adv-x="864" 
d="M814 -2h-23l-741 1432h23z" />
    <glyph glyph-name="bracketright" unicode="]" horiz-adv-x="509" 
d="M55 -138l-1 21h201v1657h-205v21h409v-1699h-404z" />
    <glyph glyph-name="asciicircum" unicode="^" horiz-adv-x="713" 
d="M663 455h-23l-284 630l-284 -630h-22l295 655h23z" />
    <glyph glyph-name="underscore" unicode="_" horiz-adv-x="1183" 
d="M1133 -31h-1083v21h1083v-21z" />
    <glyph glyph-name="grave" unicode="`" horiz-adv-x="387" 
d="M337 1480h-25l-262 246h189z" />
    <glyph glyph-name="a" unicode="a" horiz-adv-x="981" 
d="M347 -20q-76 0 -144 32t-111 97t-43 165q0 160 98.5 248t269.5 88q127 0 183 -74l-16 -12q-46 61 -140 61q-52 0 -98 -30t-75 -92t-29 -158q0 -126 49 -196t141 -71q57 0 105 27t79.5 60.5t39.5 55.5v327q-1 188 -43 295q-55 139 -198 139q-57 0 -119 -27.5t-112.5 -83.5
t-74.5 -140l-20 5q39 133 138.5 199.5t203.5 66.5q75 0 149.5 -25.5t134.5 -80t96.5 -141t36.5 -207.5v-344q0 -48 24 -76.5t58 -45.5l-274 -41v137q-44 -51 -103 -92q-94 -66 -206 -66z" />
    <glyph glyph-name="b" unicode="b" horiz-adv-x="1060" 
d="M613 -20q-81 0 -149 34t-110 97l15 15q82 -117 198 -117q68 0 125 50t91 152.5t34 259.5t-34 259.5t-91 153t-125 50.5q-62 0 -117.5 -36t-90.5 -98.5t-35 -141.5v-472q0 -69 -56 -127.5t-116 -58.5h-21v1310q0 48 -24 76.5t-58 46.5l275 41v-700q35 89 113 138.5
t176 49.5q72 0 142.5 -27.5t127.5 -86.5t91.5 -152.5t34.5 -224.5t-33 -224.5t-89 -152.5t-127 -86.5t-147 -27.5z" />
    <glyph glyph-name="c" unicode="c" horiz-adv-x="888" 
d="M496 -20q-202 0 -324 135.5t-122 355.5q0 146 57.5 257t158 172.5t230.5 61.5q70 0 140 -25.5t124 -80.5t78 -144l-19 -5q-22 78 -67 126t-100 70t-104 22q-95 0 -163.5 -59.5t-105 -162t-36.5 -232.5t36.5 -232.5t105 -162t163.5 -59.5q49 0 104 22t100 70.5t67 125.5
l19 -5q-24 -88 -78 -143.5t-124 -81t-140 -25.5z" />
    <glyph glyph-name="d" unicode="d" horiz-adv-x="1060" 
d="M447 -20q-76 0 -147 27.5t-127 86.5t-89.5 152.5t-33.5 224.5t35 224.5t92 152.5t127.5 86.5t142.5 27.5q81 0 149 -34t110 -96l-15 -16q-82 118 -198 118q-68 0 -125 -50.5t-91 -153t-34 -259.5t34 -259.5t91 -152.5t125 -50q62 0 117.5 40t90.5 103t35 132v1026
q0 48 -24 76.5t-58 46.5l275 41v-1310q0 -48 24 -76.5t57 -46.5l-274 -41v169q-35 -90 -113 -139.5t-176 -49.5z" />
    <glyph glyph-name="e" unicode="e" horiz-adv-x="905" 
d="M505 -20q-203 0 -329 135.5t-126 355.5q0 147 61 257.5t166 172t237 61.5q90 0 163 -29t117 -90t44 -157q0 -82 -45.5 -142t-119.5 -92.5t-160 -32.5q-47 0 -107 11t-110 34l10 20q46 -24 102 -34t105 -10q82 0 152 31.5t112 87.5t42 132q0 71 -35.5 124t-93 81.5
t-124.5 28.5q-146 0 -234.5 -121.5t-88.5 -332.5q0 -210 85 -332t228 -122q49 0 106 22t104 70.5t69 125.5l20 -5q-25 -88 -81 -143.5t-128 -81t-141 -25.5z" />
    <glyph glyph-name="f" unicode="f" horiz-adv-x="788" 
d="M468 0h-356q34 18 58 46.5t24 76.5v819h-144v20h144v98q0 116 31.5 192t81 120.5t106.5 62.5t109 18q81 0 128.5 -34t87.5 -96l-15 -16q-73 126 -174 126q-74 0 -118.5 -64.5t-44.5 -206.5v-200h212v-20h-212v-819q0 -48 24 -76.5t58 -46.5z" />
    <glyph glyph-name="g" unicode="g" horiz-adv-x="1041" 
d="M510 -496q-202 0 -331 73t-129 192h22q0 -64 49.5 -119t144.5 -89t230 -34q110 0 201 26t145.5 71.5t54.5 104.5q0 68 -59.5 100.5t-182.5 40t-247 15.5q-161 13 -239 70.5t-78 142.5q0 55 31.5 87.5t74.5 50t81 25.5q-87 50 -137 134.5t-50 193.5q0 116 56 203.5
t153 136.5t220 49q129 0 229 -54l-31 36q-77 91 -77 166q0 66 64 99q55 26 148 26h27l-1 -20h-21q-197 0 -197 -105q0 -37 21 -76q34 -65 126 -159l23 -24q119 -107 119 -278q0 -116 -56 -203.5t-153.5 -136.5t-220.5 -49q-118 0 -215 47q-39 -6 -73 -17.5t-56 -28.5
t-22 -42q0 -40 64 -59t190 -27l234 -17q176 -12 262.5 -74.5t86.5 -169.5q0 -101 -66 -170t-175 -103.5t-240 -34.5zM520 216q91 0 140.5 50.5t68.5 135t19 187.5t-21.5 187.5t-71 135t-135.5 50.5q-85 0 -135 -50.5t-71 -135t-21 -187.5t19 -187.5t68 -135t140 -50.5z" />
    <glyph glyph-name="h" unicode="h" horiz-adv-x="1125" 
d="M1075 0h-356q34 18 58 46.5t24 76.5v393q0 150 -31.5 246t-86 141.5t-122.5 45.5q-62 0 -115.5 -36t-86.5 -98.5t-33 -141.5l-2 -550q0 -48 24 -76.5t58 -46.5h-356q34 18 58 46.5t24 76.5v1187q0 48 -24 76.5t-58 46.5l274 41l2 -683q34 88 109.5 137t172.5 49
q100 0 188 -47.5t142.5 -150t54.5 -267.5v-389q0 -48 24.5 -76.5t57.5 -46.5z" />
    <glyph glyph-name="i" unicode="i" horiz-adv-x="500" 
d="M249 1146q-43 0 -73 30t-30 73q0 42 30 72t73 30q42 0 72 -30t30 -72q0 -43 -30 -73t-72 -30zM433 0h-356q34 18 58 46.5t24 76.5v696q0 48 -24 76.5t-58 46.5l274 41v-860q0 -48 24 -76.5t58 -46.5z" />
    <glyph glyph-name="j" unicode="j" horiz-adv-x="709" 
d="M492 1143q-42 0 -72 30t-30 73q0 42 30 72t72 30t72 -30t30 -72q0 -43 -30 -73t-72 -30zM266 -514q-81 0 -129 34t-87 97l15 15q73 -126 174 -126q74 0 118.5 64.5t44.5 207.5v1038q0 48 -24 76.5t-58 46.5l274 41v-1101q0 -116 -31.5 -192t-81 -120t-106.5 -62.5
t-109 -18.5z" />
    <glyph glyph-name="k" unicode="k" horiz-adv-x="1037" 
d="M1018 0q-125 0 -198.5 8.5t-131.5 47t-127 124.5l-237 290v-347q0 -48 24 -76.5t58 -46.5h-356q34 18 58 46.5t24 76.5v1187q0 48 -24 76.5t-58 46.5l274 41v-978l132 117q62 55 138.5 132.5t134.5 145t58 87.5v3h194q-68 -31 -212 -140t-299 -245l217 -273
q96 -120 187.5 -213t143.5 -110z" />
    <glyph glyph-name="l" unicode="l" horiz-adv-x="456" 
d="M406 0h-356q34 18 57.5 47t24.5 76v1187q0 48 -24 76.5t-58 46.5l274 41v-1351q0 -48 24 -76.5t58 -46.5z" />
    <glyph glyph-name="m" unicode="m" horiz-adv-x="1680" 
d="M1630 0h-356q34 18 58 46.5t24 76.5v384q0 427 -209 427q-62 0 -109.5 -42.5t-74.5 -109t-27 -136.5v-523q0 -48 24 -76.5t58 -46.5h-356q34 18 58 46.5t24 76.5v384q0 427 -209 427q-62 0 -109.5 -42t-74.5 -105t-27 -129v-535q0 -48 24 -76.5t58 -46.5h-356
q34 18 58 46.5t24 76.5v696q0 48 -24 76.5t-58 46.5l274 41v-200q30 82 94.5 130.5t154.5 48.5q120 0 212.5 -67.5t131.5 -212.5q5 77 38 140t91.5 101.5t138.5 38.5q101 0 183.5 -47t131 -147.5t48.5 -260.5v-384q0 -48 24 -76.5t58 -46.5z" />
    <glyph glyph-name="n" unicode="n" horiz-adv-x="1125" 
d="M1075 0h-356q34 18 58 46.5t24 76.5v384q0 146 -32 240.5t-87 140.5t-123 46q-62 0 -115.5 -36t-86.5 -98.5t-33 -141.5v-535q0 -48 24 -76.5t58 -46.5h-356q34 18 58 46.5t24 76.5v696q0 48 -24 76.5t-58 46.5l274 41v-207q34 88 109 137t173 49q100 0 188.5 -47
t144 -147.5t55.5 -260.5v-384q0 -48 24 -76.5t57 -46.5z" />
    <glyph glyph-name="o" unicode="o" horiz-adv-x="1058" 
d="M529 -20q-137 0 -245 62t-171 172.5t-63 256.5q0 147 63 257.5t171 172t245 61.5t245.5 -61.5t171 -172t62.5 -257.5q0 -146 -62.5 -256.5t-171 -172.5t-245.5 -62zM529 0q102 0 165 64t92.5 170.5t29.5 236.5t-32 237t-96 170.5t-159 63.5t-159 -63.5t-95.5 -170.5
t-31.5 -237t29 -236.5t92.5 -170.5t164.5 -64z" />
    <glyph glyph-name="p" unicode="p" horiz-adv-x="1060" 
d="M406 -491h-356q34 18 58 46.5t24 76.5v1187q0 48 -24 76.5t-58 46.5l274 41v-210q35 90 113 139.5t177 49.5q71 0 141.5 -27.5t128 -86.5t92 -152.5t34.5 -224.5t-33.5 -224.5t-89.5 -152.5t-127 -86.5t-146 -27.5q-169 3 -260 131l15 15q77 -112 200 -117q69 0 125 50.5
t90 153t34 258.5q0 157 -34.5 259.5t-91 153t-125.5 50.5q-62 0 -117.5 -36t-90.5 -98.5t-35 -141.5v-1026q0 -48 24 -76.5t58 -46.5z" />
    <glyph glyph-name="q" unicode="q" horiz-adv-x="1060" 
d="M1010 -492h-356q34 18 58 46.5t24 76.5v537q-35 -90 -113 -139.5t-176 -49.5q-76 0 -147 27.5t-127 86.5t-89.5 152.5t-33.5 224.5t35 224.5t92 152.5t127.5 86.5t142.5 27.5q169 -3 259 -130l-15 -16q-82 118 -198 118q-68 0 -125 -50.5t-91 -153t-34 -259.5t34 -259.5
t91 -152.5t125 -50q63 0 118 36t90 98t35 141v472q0 69 56 127.5t116 58.5h21v-1310q0 -48 24 -76.5t57 -46.5z" />
    <glyph glyph-name="r" unicode="r" horiz-adv-x="846" 
d="M406 0h-356q34 17 58 46t24 76v696q0 48 -24 76.5t-58 46.5l274 41v-342q42 163 141 249q50 44 123 44q17 0 33 -2q112 -19 175 -39l-38 -164q-12 58 -52 102q-27 30 -62 44.5t-72 14.5q-41 0 -79.5 -18.5t-65.5 -54.5q-54 -74 -78.5 -165t-24.5 -183v-346q0 -47 24 -76
t58 -46z" />
    <glyph glyph-name="s" unicode="s" horiz-adv-x="779" 
d="M367 -20q-104 0 -194 50.5t-123 160.5l20 5q29 -101 108 -144t182 -43q86 0 147 38.5t61 102.5q0 69 -55 127t-188 144l-8 6q-80 51 -137 95t-87.5 91.5t-30.5 114.5q0 90 86 160.5t233 73.5h4q105 0 189.5 -52t115.5 -158l-20 -6q-19 66 -62.5 107.5t-100 61
t-111.5 19.5q-93 0 -141 -37.5t-48 -81.5t26.5 -79.5t67.5 -67t89 -62.5q130 -86 206 -146q67 -53 100 -105.5t33 -121.5q0 -66 -40.5 -123.5t-121.5 -93.5t-200 -36z" />
    <glyph glyph-name="t" unicode="t" horiz-adv-x="745" 
d="M459 -20q-102 0 -167 53q-87 71 -87 244v665h-155v20q81 0 177 55.5t150 129.5h20v-185h282v-20h-282v-670q0 -95 22 -145.5t52 -69t54 -18.5q25 0 54 13t54.5 45.5t42.5 90.5l19 -5q-21 -76 -57.5 -120.5t-83 -63.5t-95.5 -19z" />
    <glyph glyph-name="u" unicode="u" horiz-adv-x="1109" 
d="M503 -20q-100 0 -185 47.5t-136 148t-51 259.5v417h1q-12 52 -82 90l274 41v-548q0 -219 61.5 -322.5t164.5 -103.5q57 0 111 36t89 98t35 141v537q0 47 -24.5 75t-57.5 46l274 41v-819q0 -47 24 -76t58 -47l-274 -40v165q-34 -88 -109 -137t-173 -49z" />
    <glyph glyph-name="v" unicode="v" horiz-adv-x="1003" 
d="M525 0h-70l-277 807q-47 129 -128 173h351q-47 -32 -47 -78q0 -20 9 -45l215 -650q83 229 139.5 449t56.5 294q0 24 -7 30h186q-44 -29 -147 -260t-217 -543z" />
    <glyph glyph-name="w" unicode="w" horiz-adv-x="1459" 
d="M985 0h-70l-194 531l-193 -531h-70l-280 804q-47 128 -128 173h351q-47 -32 -47 -78q0 -20 9 -45l218 -647l129 354l-75 243q-46 128 -129 173h269l263 -770q82 230 137.5 449t55.5 292q0 23 -7 29h185q-43 -29 -144.5 -259t-215.5 -541z" />
    <glyph glyph-name="x" unicode="x" horiz-adv-x="1035" 
d="M975 0h-365q32 25 32 60q0 25 -20 62l-163 283q-212 -298 -212 -387q0 -13 6 -18h-189q50 22 152.5 133.5t209.5 261.5l22 30l-233 382q-74 128 -165 173h365q-32 -26 -32 -60q0 -26 20 -63l181 -291h1q95 136 155.5 245t60.5 147q0 13 -6 19h190q-51 -25 -165.5 -152
t-223.5 -279l214 -373q74 -129 165 -173z" />
    <glyph glyph-name="y" unicode="y" horiz-adv-x="1209" 
d="M340 -477q-98 0 -172.5 52t-117.5 143l18 9q41 -87 110 -135.5t162 -48.5q99 0 174 75.5t133 237.5l41 112l-304 835q-47 128 -128 173h350q-46 -32 -46 -78q0 -20 9 -45l218 -611q82 227 137.5 429t55.5 275q0 24 -7 30h186q-44 -26 -145.5 -240.5t-215.5 -523.5
l-132 -363q-59 -164 -139 -245t-187 -81z" />
    <glyph glyph-name="z" unicode="z" horiz-adv-x="908" 
d="M797 1h-722v20l541 909h-240q-54 0 -109.5 -25.5t-101.5 -58t-74 -58.5l-28 -25l47 188h726v-21l-540 -909h211q60 0 120 28t110 64t81 64l31 28z" />
    <glyph glyph-name="braceleft" unicode="{" horiz-adv-x="504" 
d="M454 -130h-155q-71 0 -127.5 21.5t-89 65.5t-32.5 112q0 57 20 116.5t46 120.5q28 67 51 136.5t23 142.5q0 64 -21 94t-58 30h-17v21h17q37 0 58 30t21 94q0 73 -23 142.5t-51 136.5q-26 61 -46 120.5t-20 116.5q0 68 32.5 112t89 65.5t127.5 21.5h155v-21h-35
q-43 0 -82.5 -13.5t-65 -46.5t-25.5 -91q0 -70 12.5 -151t28.5 -160q12 -67 21.5 -125t9.5 -99q0 -52 -37 -88.5t-91 -52.5v-3q54 -16 91 -52.5t37 -87.5q0 -42 -9.5 -100t-21.5 -125q-16 -79 -28.5 -160t-12.5 -151q0 -58 25.5 -91t65 -46.5t82.5 -13.5h35v-21z" />
    <glyph glyph-name="bar" unicode="|" horiz-adv-x="120" 
d="M70 -115h-20v1707h20v-1707z" />
    <glyph glyph-name="braceright" unicode="}" horiz-adv-x="504" 
d="M204 -130h-154v21h34q44 0 83.5 13.5t64.5 46.5t25 91q0 70 -12.5 151t-27.5 160q-12 67 -21.5 125t-9.5 100q0 51 36.5 87.5t91.5 52.5v3q-55 16 -91.5 52.5t-36.5 88.5q0 41 9.5 99t21.5 125q15 79 27.5 160t12.5 151q0 58 -25 91t-64.5 46.5t-83.5 13.5h-34v21h154
q72 0 128.5 -21.5t89 -65.5t32.5 -112q0 -57 -20 -116.5t-46 -120.5q-29 -67 -52 -136.5t-23 -142.5q0 -64 21.5 -94t58.5 -30h16v-21h-16q-37 0 -58.5 -30t-21.5 -94q0 -73 23 -142.5t52 -136.5q26 -61 46 -120.5t20 -116.5q0 -68 -32.5 -112t-89 -65.5t-128.5 -21.5z" />
    <glyph glyph-name="asciitilde" unicode="~" horiz-adv-x="998" 
d="M724 587l-21 1q-54 6 -104 31q-40 20 -104 60q-49 33 -99 57q-55 28 -119 31q-104 0 -212 -119l-15 14q114 126 229 126q66 -3 126 -33q52 -26 101 -58t99 -58q58 -29 118 -32q103 0 209 117l16 -14q-112 -123 -224 -123z" />
    <glyph glyph-name="exclamdown" unicode="&#xa1;" horiz-adv-x="325" 
d="M163 1267q-41 1 -68.5 27.5t-27.5 64.5t28 65t68 27t68 -27t28 -65t-28 -65t-68 -27zM275 -2h-225l102 1228h22z" />
    <glyph glyph-name="cent" unicode="&#xa2;" horiz-adv-x="888" 
d="M518 1h-20v225q-201 0 -324.5 134t-123.5 358q0 146 58 256.5t159 172.5t231 62v225h20v-226q103 -5 193 -64.5t127 -184.5l-19 -5q-22 77 -67 125t-100 70.5t-104 22.5l-30 -2v-905l30 -2q49 0 104 22.5t100 70.5t67 125l19 -5q-37 -125 -127 -184.5t-193 -64.5v-226z
M498 268v899q-121 -27 -188 -150t-67 -299q0 -177 67 -300t188 -150z" />
    <glyph glyph-name="sterling" unicode="&#xa3;" horiz-adv-x="1130" 
d="M1019 1h-857v21q123 181 123 326q0 65 -15 140q-20 90 -43 171l-6 24h-171v20h165q-47 170 -47 271l1 26q0 131 62 227.5t164 149.5t222 53q122 0 222 -23q82 -19 215 -59l-61 -262q-44 150 -139.5 236.5t-225.5 86.5q-78 0 -135 -49q-120 -102 -120 -351q0 -104 44 -306
h308v-20h-304q48 -222 48 -320q0 -100 -100 -207q-75 -80 -157 -134h418q122 0 296 133q62 47 154 133z" />
    <glyph glyph-name="currency" unicode="&#xa4;" 
 />
    <glyph glyph-name="yen" unicode="&#xa5;" horiz-adv-x="1389" 
d="M890 2h-368q33 17 57.5 46t24.5 77v324h-236v21h236v168l-10 16h-226v20h214l-354 597q-44 73 -89 109.5t-89 53.5h416q-35 -28 -35 -75q0 -28 19 -64l355 -599q154 264 252 465.5t98 258.5q0 11 -4 14h188q-72 -67 -201.5 -251.5t-321.5 -508.5h228v-20h-236v-184h236
v-21h-236v-324q0 -48 24 -77t58 -46z" />
    <glyph glyph-name="brokenbar" unicode="&#xa6;" 
 />
    <glyph glyph-name="section" unicode="&#xa7;" 
 />
    <glyph glyph-name="dieresis" unicode="&#xa8;" horiz-adv-x="510" 
d="M365 1482q-39 0 -66.5 27.5t-27.5 66.5t27.5 66.5t66.5 27.5t67 -27.5t28 -66.5t-28 -66.5t-67 -27.5zM144 1482q-39 0 -66.5 27.5t-27.5 66.5t27.5 66.5t66.5 27.5t67 -27.5t28 -66.5t-28 -66.5t-67 -27.5z" />
    <glyph glyph-name="copyright" unicode="&#xa9;" horiz-adv-x="1512" 
d="M756 1q-194 0 -354.5 96.5t-256 259.5t-95.5 360q0 198 95 360t254 258t355 99q196 0 356.5 -96.5t256 -259t95.5 -361.5q0 -197 -95 -360t-255.5 -259.5t-355.5 -96.5zM756 22q190 0 345.5 93.5t248 251.5t92.5 350q0 194 -93 351.5t-249 251t-346 93.5
q-191 -3 -345 -95.5t-246 -250.5t-92 -350t92.5 -350t248 -251.5t344.5 -93.5zM788 205q-138 0 -252 61t-181.5 176t-67.5 277t67.5 277t181.5 175.5t252 60.5q87 0 158.5 -16.5t122.5 -33.5l33 -10l-43 -181q-31 103 -106.5 162t-164.5 59q-101 0 -170.5 -64t-106 -175.5
t-36.5 -253.5t37.5 -253.5t107 -175.5t168.5 -64q130 0 221.5 70.5t110.5 180.5l20 -3q-20 -118 -118 -193.5t-234 -75.5z" />
    <glyph glyph-name="ordfeminine" unicode="&#xaa;" 
 />
    <glyph glyph-name="guillemotleft" unicode="&#xab;" 
 />
    <glyph glyph-name="logicalnot" unicode="&#xac;" 
 />
    <glyph glyph-name="registered" unicode="&#xae;" horiz-adv-x="716" 
d="M358 811q-127 0 -217.5 90t-90.5 218q0 127 88.5 215.5t218.5 92.5q128 0 217 -88.5t92 -219.5q0 -128 -90 -218t-218 -90zM358 831q119 0 203.5 84t84.5 204t-84.5 203.5t-204.5 83.5q-122 -3 -204 -86t-82 -201q0 -120 84 -204t203 -84zM475 900l-20 13
q-20 13 -44.5 31.5t-42.5 36.5q-37 39 -58 71.5t-35 72.5v-181q0 -23 24 -36h-109q24 13 24 36v349q0 23 -24 36h164q72 0 117.5 -27t45.5 -100q0 -66 -38 -95t-89 -29q-48 0 -84 26q29 -43 80 -72q74 -36 140 -46zM363 1112q86 0 86 90q0 48 -21 77t-74 29h-79v-118
q6 -41 29.5 -59.5t55.5 -18.5h3z" />
    <glyph glyph-name="macron" unicode="&#xaf;" 
 />
    <glyph glyph-name="degree" unicode="&#xb0;" 
 />
    <glyph glyph-name="plusminus" unicode="&#xb1;" horiz-adv-x="918" 
d="M467 292h-20v401h-397v21h397v397h20v-397h401v-21h-401v-401zM868 249h-818v20h818v-20z" />
    <glyph glyph-name="uni00B2" unicode="&#xb2;" 
 />
    <glyph glyph-name="uni00B3" unicode="&#xb3;" 
 />
    <glyph glyph-name="acute" unicode="&#xb4;" horiz-adv-x="387" 
d="M75 1479h-25l98 245h189z" />
    <glyph glyph-name="mu" unicode="&#xb5;" 
 />
    <glyph glyph-name="paragraph" unicode="&#xb6;" 
 />
    <glyph glyph-name="periodcentered" unicode="&#xb7;" 
 />
    <glyph glyph-name="periodcentered" unicode="&#x2219;" 
 />
    <glyph glyph-name="cedilla" unicode="&#xb8;" horiz-adv-x="465" 
d="M205 -273h-155v21h155q42 1 66 32.5t24 84.5q0 52 -27.5 86t-71.5 34h-101v20l143 132h25l-141 -132h110q48 0 90 -13t67.5 -44t25.5 -83q0 -79 -55.5 -108.5t-154.5 -29.5z" />
    <glyph glyph-name="uni00B9" unicode="&#xb9;" horiz-adv-x="1476" 
 />
    <glyph glyph-name="ordmasculine" unicode="&#xba;" horiz-adv-x="1476" 
 />
    <glyph glyph-name="guillemotright" unicode="&#xbb;" horiz-adv-x="1476" 
 />
    <glyph glyph-name="onequarter" unicode="&#xbc;" horiz-adv-x="1476" 
 />
    <glyph glyph-name="onehalf" unicode="&#xbd;" horiz-adv-x="1476" 
 />
    <glyph glyph-name="threequarters" unicode="&#xbe;" horiz-adv-x="1476" 
 />
    <glyph glyph-name="questiondown" unicode="&#xbf;" horiz-adv-x="885" 
d="M479 1266q-40 0 -68 27t-28 65t28 65t68 27t68 -27t28 -65t-28 -65t-68 -27zM433 -3q-106 0 -193 42t-138.5 118.5t-51.5 180.5q0 101 32.5 182.5t82.5 151.5t105 135q52 62 98 125.5t75.5 135t29.5 157.5h20q0 -101 -18.5 -183t-47 -153.5t-61 -139t-61 -138.5
t-47 -152.5t-18.5 -181.5q0 -73 18.5 -132t61 -93t113.5 -35q119 0 207.5 87t132.5 237l62 -262l-59 -18q-68 -22 -154 -43t-189 -21z" />
    <glyph glyph-name="Agrave" unicode="&#xc0;" horiz-adv-x="1476" 
d="M1426 0h-391q19 14 34 39t15 57q0 21 -9 44l-118 288h-627q-99 -315 -99 -402q0 -21 6 -26h-187q44 27 160.5 270.5t257.5 600.5l222 562h83l524 -1297q45 -93 129 -136zM948 448l-318 775l-139 -351q-92 -233 -154 -424h611zM770 1476h-24l-262 245h188z" />
    <glyph glyph-name="Aacute" unicode="&#xc1;" horiz-adv-x="1476" 
d="M1426 0h-391q19 14 34 39t15 57q0 21 -9 44l-118 288h-627q-99 -315 -99 -402q0 -21 6 -26h-187q44 27 160.5 270.5t257.5 600.5l222 562h83l524 -1297q45 -93 129 -136zM948 448l-318 775l-139 -351q-92 -233 -154 -424h611zM721 1481h-24l98 245h188z" />
    <glyph glyph-name="Acircumflex" unicode="&#xc2;" horiz-adv-x="1476" 
d="M1426 0h-391q19 14 34 39t15 57q0 21 -9 44l-118 288h-627q-99 -315 -99 -402q0 -21 6 -26h-187q44 27 160.5 270.5t257.5 600.5l222 562h83l524 -1297q45 -93 129 -136zM948 448l-318 775l-139 -351q-92 -233 -154 -424h611zM957 1483h-188l-45 209l-45 -209h-188
l221 245h24z" />
    <glyph glyph-name="Atilde" unicode="&#xc3;" horiz-adv-x="1476" 
d="M1426 0h-391q19 14 34 39t15 57q0 21 -9 44l-118 288h-627q-99 -315 -99 -402q0 -21 6 -26h-187q44 27 160.5 270.5t257.5 600.5l222 562h83l524 -1297q45 -93 129 -136zM948 448l-318 775l-139 -351q-92 -233 -154 -424h611zM501 1496l-20 5q22 76 49.5 112.5t60.5 43.5
l16 2q32 0 63 -18q38 -21 77 -49q38 -30 74 -48q28 -15 52 -15q7 0 13 1q51 7 90 137l19 -5q-20 -73 -46 -109q-33 -45 -77 -45q-31 0 -61 17q-36 20 -72 47l-13 9q-79 57 -118 57q-7 0 -13 -1q-57 -11 -94 -141z" />
    <glyph glyph-name="Adieresis" unicode="&#xc4;" horiz-adv-x="1476" 
d="M1426 0h-391q19 14 34 39t15 57q0 21 -9 44l-118 288h-627q-99 -315 -99 -402q0 -21 6 -26h-187q44 27 160.5 270.5t257.5 600.5l222 562h83l524 -1297q45 -93 129 -136zM948 448l-318 775l-139 -351q-92 -233 -154 -424h611zM628 1481q-39 0 -67 27.5t-28 66.5t28 66.5
t67 27.5t66.5 -27.5t27.5 -66.5t-27.5 -66.5t-66.5 -27.5zM849 1481q-39 0 -67 27.5t-28 66.5t28 66.5t67 27.5t66.5 -27.5t27.5 -66.5t-27.5 -66.5t-66.5 -27.5z" />
    <glyph glyph-name="Aring" unicode="&#xc5;" horiz-adv-x="1476" 
d="M1426 0h-391q19 14 34 39t15 57q0 21 -9 44l-118 288h-627q-99 -315 -99 -402q0 -21 6 -26h-187q44 27 160.5 270.5t257.5 600.5l222 562h83l524 -1297q45 -93 129 -136zM948 448l-318 775l-139 -351q-92 -233 -154 -424h611zM738 1496q-49 0 -84 34.5t-35 83.5t35 84
t84 35t84 -35t35 -84t-35 -83.5t-84 -34.5zM738 1516q41 0 69.5 28.5t28.5 69.5t-28.5 69.5t-69.5 28.5t-69.5 -28.5t-28.5 -69.5t28.5 -69.5t69.5 -28.5z" />
    <glyph glyph-name="AE" unicode="&#xc6;" horiz-adv-x="1875" 
d="M1780 1h-982q33 17 57 46t24 76v305h-520q-141 -337 -141 -411q0 -13 4 -16h-186q47 27 189.5 271.5t310.5 599.5l262 561h961l62 -245l-37 34q-37 35 -97 78.5t-132.5 78t-143.5 34.5h-327v-645q274 0 426 24t171 58v-184q-19 34 -171 58t-426 24v-727h307
q71 0 149.5 40.5t146.5 92.5t111 92l43 41zM879 449v861q0 71 -64 112l-256 -550q-111 -232 -191 -423h511z" />
    <glyph glyph-name="Ccedilla" unicode="&#xc7;" horiz-adv-x="1317" 
d="M722 -416h-155v21h155q43 1 67 32.5t24 84.5q0 52 -27.5 86t-71.5 34h-101v20l128 118q-147 4 -272 54.5t-219.5 144.5t-147.5 229.5t-53 308.5q0 175 55 312t152 231.5t226.5 143.5t278.5 49q131 0 237 -23.5t180 -47.5l37 -11l-61 -262q-46 150 -155 237t-238 87
q-244 0 -370 -205q-117 -190 -117 -511q0 -322 117 -512q126 -205 370 -205q193 4 325 105.5t160 261.5l20 -3q-29 -168 -165.5 -273.5t-334.5 -110.5l-126 -118h110q48 0 90 -13t67.5 -44t25.5 -83q0 -79 -55.5 -108.5t-155.5 -29.5z" />
    <glyph glyph-name="Egrave" unicode="&#xc8;" horiz-adv-x="1144" 
d="M1033 0h-983q34 18 58 46.5t24 76.5v1187q0 47 -24 76t-58 46h962l61 -245q-54 54 -133 112q-154 113 -276 113h-327v-645q273 0 425 24t172 58v-184q-20 34 -171.5 58t-425.5 24v-727h307q71 0 149.5 40.5t146.5 92.5t111 93l43 40zM632 1483h-24l-262 245h188z" />
    <glyph glyph-name="Eacute" unicode="&#xc9;" horiz-adv-x="1144" 
d="M1033 0h-983q34 18 58 46.5t24 76.5v1187q0 47 -24 76t-58 46h962l61 -245q-54 54 -133 112q-154 113 -276 113h-327v-645q273 0 425 24t172 58v-184q-20 34 -171.5 58t-425.5 24v-727h307q71 0 149.5 40.5t146.5 92.5t111 93l43 40zM518 1481h-24l98 245h188z" />
    <glyph glyph-name="Ecircumflex" unicode="&#xca;" horiz-adv-x="1144" 
d="M1033 0h-983q34 18 58 46.5t24 76.5v1187q0 47 -24 76t-58 46h962l61 -245q-54 54 -133 112q-154 113 -276 113h-327v-645q273 0 425 24t172 58v-184q-20 34 -171.5 58t-425.5 24v-727h307q71 0 149.5 40.5t146.5 92.5t111 93l43 40zM826 1481h-188l-45 209l-45 -209
h-188l221 245h24z" />
    <glyph glyph-name="Edieresis" unicode="&#xcb;" horiz-adv-x="1144" 
d="M1033 0h-983q34 18 58 46.5t24 76.5v1187q0 47 -24 76t-58 46h962l61 -245q-54 54 -133 112q-154 113 -276 113h-327v-645q273 0 425 24t172 58v-184q-20 34 -171.5 58t-425.5 24v-727h307q71 0 149.5 40.5t146.5 92.5t111 93l43 40zM516 1481q-39 0 -67 27.5t-28 66.5
t28 66.5t67 27.5t66.5 -27.5t27.5 -66.5t-27.5 -66.5t-66.5 -27.5zM737 1481q-39 0 -67 27.5t-28 66.5t28 66.5t67 27.5t66.5 -27.5t27.5 -66.5t-27.5 -66.5t-66.5 -27.5z" />
    <glyph glyph-name="Igrave" unicode="&#xcc;" horiz-adv-x="510" 
d="M440 0h-369q34 18 58 46.5t24 76.5v1187q0 48 -24 76.5t-58 46.5h369q-34 -18 -58 -46.5t-24 -76.5v-1187q0 -48 24 -76.5t58 -46.5zM392 1485h-24l-262 245h188z" />
    <glyph glyph-name="Iacute" unicode="&#xcd;" horiz-adv-x="510" 
d="M440 0h-369q34 18 58 46.5t24 76.5v1187q0 48 -24 76.5t-58 46.5h369q-34 -18 -58 -46.5t-24 -76.5v-1187q0 -48 24 -76.5t58 -46.5zM179 1485h-24l98 245h188z" />
    <glyph glyph-name="Icircumflex" unicode="&#xce;" horiz-adv-x="510" 
d="M440 0h-369q34 18 58 46.5t24 76.5v1187q0 48 -24 76.5t-58 46.5h369q-34 -18 -58 -46.5t-24 -76.5v-1187q0 -48 24 -76.5t58 -46.5zM488 1483h-188l-45 209l-45 -209h-188l221 245h24z" />
    <glyph glyph-name="Idieresis" unicode="&#xcf;" horiz-adv-x="510" 
d="M440 0h-369q34 18 58 46.5t24 76.5v1187q0 48 -24 76.5t-58 46.5h369q-34 -18 -58 -46.5t-24 -76.5v-1187q0 -48 24 -76.5t58 -46.5zM164 1485q-39 0 -67 27.5t-28 66.5t28 66.5t67 27.5t66.5 -27.5t27.5 -66.5t-27.5 -66.5t-66.5 -27.5zM385 1485q-39 0 -67 27.5
t-28 66.5t28 66.5t67 27.5t66.5 -27.5t27.5 -66.5t-27.5 -66.5t-66.5 -27.5z" />
    <glyph glyph-name="Eth" unicode="&#xd0;" horiz-adv-x="1512" 
d="M745 0h-577q34 18 58 46.5t24 76.5v583h-205v21h205v583q0 48 -24 76.5t-58 46.5h577q149 0 278.5 -46t226.5 -136.5t152 -224.5t55 -309q0 -235 -91 -394.5t-251.5 -241t-369.5 -81.5zM745 21q156 0 265 86.5t165.5 243t56.5 366.5q0 209 -51.5 365.5t-159 243
t-276.5 86.5h-291v-685h328v-21h-328v-685h291z" />
    <glyph glyph-name="Ntilde" unicode="&#xd1;" horiz-adv-x="1390" 
d="M1257 -1h-41l-1003 1239v-367q0 -350 24 -597.5t58 -274.5h-184q34 27 58 275.5t24 596.5v392q-29 38 -68 81q-33 36 -76 88h270l917 -1129v257q0 348 -24 596.5t-58 275.5h185q-34 -27 -58 -274.5t-24 -597.5v-561zM457 1488l-20 5q39 141 110 156l16 2q50 0 139 -67
q83 -63 127 -63l12 1q53 7 90 137l20 -5q-20 -73 -47 -109q-31 -45 -77 -45q-30 0 -60.5 16.5t-60.5 39.5l-16 11q-84 63 -126 63q-7 0 -13 -1q-56 -10 -94 -141z" />
    <glyph glyph-name="Ograve" unicode="&#xd2;" horiz-adv-x="1492" 
d="M745 -19q-199 0 -356.5 92.5t-248.5 258.5t-91 385q0 220 91 386t248.5 258.5t356.5 92.5t356.5 -92.5t248.5 -258.5t91 -386q0 -219 -91 -385t-248.5 -258.5t-356.5 -92.5zM745 1q241 0 362 212q109 191 109 504q0 314 -109 504q-121 213 -362 213t-362 -213
q-109 -190 -109 -504q0 -313 109 -504q121 -212 362 -212zM802 1504h-24l-262 245h188z" />
    <glyph glyph-name="Oacute" unicode="&#xd3;" horiz-adv-x="1492" 
d="M745 -20q-199 0 -356.5 92.5t-248.5 258.5t-91 385q0 220 91 386t248.5 258.5t356.5 92.5t356.5 -92.5t248.5 -258.5t91 -386q0 -219 -91 -385t-248.5 -258.5t-356.5 -92.5zM745 0q241 0 362 212q109 191 109 504q0 314 -109 504q-121 213 -362 213t-362 -213
q-109 -190 -109 -504q0 -313 109 -504q121 -212 362 -212zM651 1506h-24l98 245h188z" />
    <glyph glyph-name="Ocircumflex" unicode="&#xd4;" horiz-adv-x="1492" 
d="M747 -20q-199 0 -356.5 92.5t-248.5 258.5t-91 385q0 220 91 386t248.5 258.5t356.5 92.5t356.5 -92.5t248.5 -258.5t91 -386q0 -219 -91 -385t-248.5 -258.5t-356.5 -92.5zM747 0q241 0 362 212q109 191 109 504q0 314 -109 504q-121 213 -362 213t-362 -213
q-109 -190 -109 -504q0 -313 109 -504q121 -212 362 -212zM964 1504h-188l-45 209l-45 -209h-188l221 245h24z" />
    <glyph glyph-name="Otilde" unicode="&#xd5;" horiz-adv-x="1492" 
d="M747 -18q-199 0 -356.5 92.5t-248.5 258.5t-91 385q0 220 91 386t248.5 258.5t356.5 92.5t356.5 -92.5t248.5 -258.5t91 -386q0 -219 -91 -385t-248.5 -258.5t-356.5 -92.5zM747 2q241 0 362 212q109 191 109 504q0 314 -109 504q-121 213 -362 213t-362 -213
q-109 -190 -109 -504q0 -313 109 -504q121 -212 362 -212zM501 1517l-20 5q22 76 49.5 112.5t60.5 43.5l16 2q32 0 63 -18q38 -21 77 -49q38 -30 74 -48q28 -15 52 -15q7 0 13 1q51 7 90 137l19 -5q-20 -73 -46 -109q-33 -45 -77 -45q-31 0 -61 17q-36 20 -72 47l-13 9
q-79 57 -118 57q-7 0 -13 -1q-57 -11 -94 -141z" />
    <glyph glyph-name="Odieresis" unicode="&#xd6;" horiz-adv-x="1492" 
d="M747 -20q-199 0 -356.5 92.5t-248.5 258.5t-91 385q0 220 91 386t248.5 258.5t356.5 92.5t356.5 -92.5t248.5 -258.5t91 -386q0 -219 -91 -385t-248.5 -258.5t-356.5 -92.5zM747 0q241 0 362 212q109 191 109 504q0 314 -109 504q-121 213 -362 213t-362 -213
q-109 -190 -109 -504q0 -313 109 -504q121 -212 362 -212zM634 1492q-39 0 -67 27.5t-28 66.5t28 66.5t67 27.5t66.5 -27.5t27.5 -66.5t-27.5 -66.5t-66.5 -27.5zM855 1492q-39 0 -67 27.5t-28 66.5t28 66.5t67 27.5t66.5 -27.5t27.5 -66.5t-27.5 -66.5t-66.5 -27.5z" />
    <glyph glyph-name="multiply" unicode="&#xd7;" horiz-adv-x="836" 
d="M771 309l-353 372l-353 -372l-15 14l354 373l-354 373l15 14l353 -372l353 372l15 -14l-354 -373l354 -373z" />
    <glyph glyph-name="Oslash" unicode="&#xd8;" horiz-adv-x="1492" 
d="M741 -19q-235 0 -412 129l-76 -109h-28l86 123q-124 97 -195 249t-71 345q0 219 91 385t248.5 258.5t356.5 92.5q235 0 411 -129l76 109h29l-86 -123q124 -97 194 -248.5t72 -344.5q0 -220 -91 -386t-248.5 -258.5t-356.5 -92.5zM376 218l716 1021q-121 195 -351 195
q-242 0 -362 -212q-109 -191 -109 -504q0 -310 106 -500zM741 1q241 0 362 212q108 191 108 505q0 309 -106 500l-716 -1022q121 -195 352 -195z" />
    <glyph glyph-name="Ugrave" unicode="&#xd9;" horiz-adv-x="1348" 
d="M671 -19q-158 0 -280.5 63.5t-192 203t-69.5 365.5v698q0 48 -24 76.5t-58 46.5h368q-34 -18 -58 -46.5t-24 -76.5v-698q0 -152 38.5 -262t100.5 -180t138.5 -103.5t152.5 -33.5q101 0 199 59t162 184.5t69 324.5q-3 342 -26 574t-56 258h184q-34 -27 -58 -274.5
t-24 -597.5v51q0 -219 -69.5 -359t-192 -206.5t-280.5 -66.5zM802 1504h-24l-262 245h188z" />
    <glyph glyph-name="Uacute" unicode="&#xda;" horiz-adv-x="1348" 
d="M674 -19q-158 0 -280.5 63.5t-192 203t-69.5 365.5v698q0 48 -24 76.5t-58 46.5h368q-34 -18 -58 -46.5t-24 -76.5v-698q0 -152 38.5 -262t100.5 -180t138.5 -103.5t152.5 -33.5q101 0 199 59t162 184.5t69 324.5q-3 342 -26 574t-56 258h184q-34 -27 -58 -274.5
t-24 -597.5v51q0 -219 -69.5 -359t-192 -206.5t-280.5 -66.5zM651 1506h-24l98 245h188z" />
    <glyph glyph-name="Ucircumflex" unicode="&#xdb;" horiz-adv-x="1348" 
d="M674 -19q-158 0 -280.5 63.5t-192 203t-69.5 365.5v698q0 48 -24 76.5t-58 46.5h368q-34 -18 -58 -46.5t-24 -76.5v-698q0 -152 38.5 -262t100.5 -180t138.5 -103.5t152.5 -33.5q101 0 199 59t162 184.5t69 324.5q-3 342 -26 574t-56 258h184q-34 -27 -58 -274.5
t-24 -597.5v51q0 -219 -69.5 -359t-192 -206.5t-280.5 -66.5zM964 1504h-188l-45 209l-45 -209h-188l221 245h24z" />
    <glyph glyph-name="Udieresis" unicode="&#xdc;" horiz-adv-x="1348" 
d="M674 -19q-158 0 -280.5 63.5t-192 203t-69.5 365.5v698q0 48 -24 76.5t-58 46.5h368q-34 -18 -58 -46.5t-24 -76.5v-698q0 -152 38.5 -262t100.5 -180t138.5 -103.5t152.5 -33.5q101 0 199 59t162 184.5t69 324.5q-3 342 -26 574t-56 258h184q-34 -27 -58 -274.5
t-24 -597.5v51q0 -219 -69.5 -359t-192 -206.5t-280.5 -66.5zM634 1492q-39 0 -67 27.5t-28 66.5t28 66.5t67 27.5t66.5 -27.5t27.5 -66.5t-27.5 -66.5t-66.5 -27.5zM855 1492q-39 0 -67 27.5t-28 66.5t28 66.5t67 27.5t66.5 -27.5t27.5 -66.5t-27.5 -66.5t-66.5 -27.5z" />
    <glyph glyph-name="Yacute" unicode="&#xdd;" horiz-adv-x="1389" 
d="M889 0h-369q34 19 58 47.5t24 76.5v513l-375 633q-44 73 -89 110t-89 54h416q-35 -30 -35 -75q0 -29 19 -64l354 -599q153 256 252 463t99 261q0 11 -5 14h189q-160 -149 -523 -758l-8 -15v-537q0 -48 24 -76.5t58 -47.5zM780 1475h-24l98 245h188z" />
    <glyph glyph-name="Thorn" unicode="&#xde;" horiz-adv-x="1213" 
d="M418 -266h-369q34 18 58 46.5t24 76.5v1187q0 48 -24 76.5t-58 46.5h369q-34 -18 -58 -46.5t-24 -76.5v-122h272q164 0 289 -49.5t195 -154t70 -270.5q0 -162 -60 -266t-158 -154t-212 -50q-106 0 -186 37.5t-133 101t-77 142.5v-402q0 -48 24 -76.5t58 -46.5zM638 37
q106 0 172 56.5t96.5 153t30.5 217.5v8q0 117 -31.5 214.5t-104 156.5t-193.5 59h-272v-471q0 -127 41 -215t109.5 -133.5t151.5 -45.5z" />
    <glyph glyph-name="germandbls" unicode="&#xdf;" horiz-adv-x="1151" 
d="M710 0v21q83 0 132 60.5t49 154.5q0 76 -29.5 137t-72.5 111.5t-87 93.5q-49 47 -83.5 90t-34.5 87q0 32 25.5 58t63.5 54t77.5 66t66.5 92.5t27 133.5q0 113 -76.5 193.5t-182.5 80.5q-255 0 -255 -432v-878q0 -48 24 -76.5t58 -46.5h-368q34 18 58 46.5t24 76.5v855
q0 159 56 264.5t156 158t232 52.5q80 0 149.5 -36t112 -104t42.5 -163q-2 -103 -38 -166t-74 -103q-20 -24 -34 -43.5t-14 -38.5q0 -22 30 -49.5t74.5 -61t92 -74t89.5 -91t68.5 -111.5t26.5 -135q0 -80 -52 -142t-139.5 -98.5t-193.5 -36.5z" />
    <glyph glyph-name="agrave" unicode="&#xe0;" horiz-adv-x="980" 
d="M450 1003h-24l-262 246h188zM347 -20q-75 0 -143.5 32t-111 97t-42.5 165q0 160 97.5 247.5t270.5 87.5q126 0 183 -73l-16 -12q-46 61 -141 61q-51 0 -97.5 -30t-75.5 -92t-29 -158q0 -127 49.5 -196.5t140.5 -70.5q57 0 105.5 27t80 60.5t38.5 55.5v326q-1 189 -43 296
q-54 139 -198 139q-56 0 -118.5 -27.5t-113 -83.5t-74.5 -140l-20 5q40 133 139 199.5t203 66.5q76 0 150 -25.5t134.5 -80.5t96.5 -141t36 -208v-343q0 -48 24 -76.5t58 -46.5l-274 -41v138q-43 -51 -103 -93q-94 -65 -206 -65z" />
    <glyph glyph-name="aacute" unicode="&#xe1;" horiz-adv-x="980" 
d="M445 1003h-24l98 246h188zM347 -20q-75 0 -143.5 32t-111 97t-42.5 165q0 160 98.5 247.5t268.5 87.5q127 0 184 -73l-16 -12q-47 61 -141 61q-52 0 -98 -30t-75 -92t-29 -158q0 -127 49.5 -197t140.5 -70q57 0 105.5 27t80 60.5t38.5 55.5v326q-1 189 -43 296
q-54 139 -198 139q-56 0 -118.5 -27.5t-113 -83.5t-74.5 -140l-20 5q40 133 139 199.5t203 66.5q76 0 150 -25.5t134.5 -80.5t96.5 -141t36 -208v-343q0 -48 24 -76.5t58 -46.5l-274 -41v138q-43 -51 -103 -93q-94 -65 -206 -65z" />
    <glyph glyph-name="acircumflex" unicode="&#xe2;" horiz-adv-x="980" 
d="M666 1003h-189l-45 209l-44 -209h-189l221 246h25zM347 -20q-75 0 -143.5 32t-111 97t-42.5 165q0 160 98.5 247.5t269.5 87.5q126 0 183 -73l-16 -12q-46 61 -141 61q-52 0 -98 -30t-75 -92t-29 -158q0 -127 49.5 -197t140.5 -70q57 0 105.5 27t80 60.5t38.5 55.5v326
q-1 189 -43 296q-54 139 -198 139q-56 0 -118.5 -27.5t-113 -83.5t-74.5 -140l-20 5q40 133 139 199.5t203 66.5q76 0 150 -25.5t134.5 -80.5t96.5 -141t36 -208v-343q0 -48 24 -76.5t58 -46.5l-274 -41v138q-43 -51 -103 -93q-94 -65 -206 -65z" />
    <glyph glyph-name="atilde" unicode="&#xe3;" horiz-adv-x="980" 
d="M347 -20q-75 0 -143.5 32t-111 97t-42.5 165q0 160 98.5 247.5t269.5 87.5q126 0 183 -73l-16 -12q-46 61 -141 61q-52 0 -98 -30t-75 -92t-29 -158q0 -127 49.5 -197t140.5 -70q57 0 105.5 27t80 60.5t38.5 55.5v326q-1 189 -43 296q-54 139 -198 139
q-56 0 -118.5 -27.5t-113 -83.5t-74.5 -140l-20 5q40 133 139 199.5t203 66.5q76 0 150 -25.5t134.5 -80.5t96.5 -141t36 -208v-343q0 -48 24 -76.5t58 -46.5l-274 -41v138q-43 -51 -103 -93q-94 -65 -206 -65zM226 990l-19 6q21 76 49 112.5t61 43.5l16 2q53 0 139 -68
q39 -28 74 -48q29 -15 53 -15q31 0 59 36q23 32 43 103l20 -6q-39 -137 -106 -152l-16 -2q-53 0 -139 68q-83 63 -125 63l-14 -2q-56 -7 -95 -141z" />
    <glyph glyph-name="adieresis" unicode="&#xe4;" horiz-adv-x="980" 
d="M538 1003q-39 0 -66.5 27.5t-27.5 66.5t27.5 66.5t66.5 27.5t66.5 -27.5t27.5 -66.5t-27.5 -66.5t-66.5 -27.5zM317 1003q-39 0 -66.5 27.5t-27.5 66.5t27.5 66.5t66.5 27.5t66.5 -27.5t27.5 -66.5t-27.5 -66.5t-66.5 -27.5zM347 -20q-75 0 -143.5 32t-111 97t-42.5 165
q0 160 98.5 247.5t269.5 87.5q126 0 183 -73l-16 -12q-46 61 -141 61q-52 0 -98 -30t-75 -92t-29 -158q0 -127 49.5 -197t140.5 -70q57 0 105.5 27t80 60.5t38.5 55.5v326q-1 189 -43 296q-54 139 -198 139q-56 0 -118.5 -27.5t-113 -83.5t-74.5 -140l-20 5
q40 133 139 199.5t203 66.5q76 0 150 -25.5t134.5 -80.5t96.5 -141t36 -208v-343q0 -48 24 -76.5t58 -46.5l-274 -41v138q-43 -51 -103 -93q-94 -65 -206 -65z" />
    <glyph glyph-name="aring" unicode="&#xe5;" horiz-adv-x="980" 
d="M433 995q-49 0 -84 35t-35 84t35 83.5t84 34.5t84 -34.5t35 -83.5t-35 -84t-84 -35zM433 1015q41 0 69.5 29t28.5 70q0 40 -28.5 69t-69.5 29t-69.5 -29t-28.5 -69q0 -41 28.5 -70t69.5 -29zM347 -20q-75 0 -143.5 32t-111 97t-42.5 165q0 160 98.5 247.5t268.5 87.5
q127 0 184 -73l-16 -12q-47 61 -141 61q-52 0 -98 -30t-75 -92t-29 -158q0 -127 49.5 -197t140.5 -70q57 0 105.5 27t80 60.5t38.5 55.5v326q-1 189 -43 296q-54 139 -198 139q-56 0 -118.5 -27.5t-113 -83.5t-74.5 -140l-20 5q40 133 139 199.5t203 66.5q76 0 150 -25.5
t134.5 -80.5t96.5 -141t36 -208v-343q0 -48 24 -76.5t58 -46.5l-274 -41v138q-43 -51 -103 -93q-94 -65 -206 -65z" />
    <glyph glyph-name="ae" unicode="&#xe6;" horiz-adv-x="1510" 
d="M1113 -21q-176 0 -294.5 103t-150.5 279q-24 -148 -103 -258q-90 -124 -215 -124q-75 0 -143.5 32t-111 97t-42.5 164q0 161 98.5 248.5t269.5 87.5q126 0 183 -73l-16 -12q-46 61 -141 61q-51 0 -97.5 -27t-75.5 -85.5t-29 -154.5q0 -98 49.5 -163t140.5 -65
q57 0 108 52.5t83.5 146.5t32.5 218q0 106 -17 205q-39 229 -227 229q-87 0 -175.5 -62t-127.5 -189l-20 6q40 132 139 199t203 67q93 0 182 -39t152 -124q136 163 355 163q89 0 162.5 -29t117.5 -90t44 -158q0 -82 -45.5 -141.5t-120 -92t-159.5 -32.5q-47 0 -107 11
t-110 34l10 20q46 -24 102 -34.5t105 -10.5q82 0 151.5 31.5t111.5 88t42 131.5q0 72 -35 124.5t-92.5 81.5t-124.5 29q-146 0 -235 -121.5t-89 -332.5q0 -210 85.5 -332.5t228.5 -122.5q49 0 106 22.5t104 70.5t69 126l19 -6q-25 -88 -80.5 -143t-127.5 -80.5t-142 -25.5z
" />
    <glyph glyph-name="ccedilla" unicode="&#xe7;" horiz-adv-x="888" 
d="M485 -409h-155v21h155q43 1 67 32.5t24 84.5q0 52 -28 85.5t-71 33.5h-102v21l121 111q-202 0 -324 136t-122 355q0 147 57 257.5t157.5 172t231.5 61.5q69 0 139 -25.5t124 -80.5t79 -144l-20 -5q-22 78 -67 126t-100 70t-104 22q-95 0 -163.5 -59.5t-105 -162
t-36.5 -232.5t36.5 -232.5t105 -162t163.5 -59.5q49 0 104 22t100 70.5t67 125.5l20 -5q-37 -124 -125.5 -183.5t-190.5 -65.5l-120 -112h110q49 0 90.5 -13.5t67.5 -44t26 -82.5q0 -79 -55.5 -108.5t-155.5 -29.5z" />
    <glyph glyph-name="egrave" unicode="&#xe8;" horiz-adv-x="904" 
d="M504 -20q-202 0 -328 136t-126 355q0 147 60.5 257.5t165.5 172t238 61.5q89 0 162.5 -29t117.5 -90t44 -157q0 -82 -46 -142t-120 -92.5t-160 -32.5q-46 0 -106.5 11t-109.5 34l9 20q47 -24 103 -34t104 -10q83 0 152.5 31.5t111.5 87.5t42 132q0 71 -35 124t-93 81.5
t-125 28.5q-145 0 -234 -121.5t-89 -332.5q0 -210 85.5 -332t228.5 -122q48 0 105 22t104 70.5t69 125.5l20 -5q-25 -88 -81 -143.5t-128 -81t-141 -25.5zM564 1003h-25l-261 246h188z" />
    <glyph glyph-name="eacute" unicode="&#xe9;" horiz-adv-x="904" 
d="M535 1003h-25l98 246h189zM504 -20q-202 0 -328 136t-126 355q0 147 60.5 257.5t165.5 172t238 61.5q89 0 162.5 -29t117.5 -90t44 -157q0 -82 -46 -142t-120 -92.5t-160 -32.5q-46 0 -106.5 11t-109.5 34l9 20q47 -24 103 -34t104 -10q83 0 152.5 31.5t111.5 87.5
t42 132q0 71 -35 124t-93 81.5t-125 28.5q-145 0 -234 -121.5t-89 -332.5q0 -210 85.5 -332t228.5 -122q48 0 105 22t104 70.5t69 125.5l20 -5q-25 -88 -81 -143.5t-128 -81t-141 -25.5z" />
    <glyph glyph-name="ecircumflex" unicode="&#xea;" horiz-adv-x="904" 
d="M776 1003h-188l-45 209l-45 -209h-188l221 246h24zM504 -20q-202 0 -328 136t-126 355q0 147 60.5 257.5t165.5 172t238 61.5q89 0 162.5 -29t117.5 -90t44 -157q0 -82 -46 -142t-120 -92.5t-160 -32.5q-46 0 -106.5 11t-109.5 34l9 20q47 -24 103 -34t104 -10
q83 0 152.5 31.5t111.5 87.5t42 132q0 71 -35 124t-93 81.5t-125 28.5q-145 0 -234 -121.5t-89 -332.5q0 -210 85.5 -332t228.5 -122q48 0 105 22t104 70.5t69 125.5l20 -5q-25 -88 -81 -143.5t-128 -81t-141 -25.5z" />
    <glyph glyph-name="edieresis" unicode="&#xeb;" horiz-adv-x="904" 
d="M428 1003q-39 0 -66.5 27.5t-27.5 66.5t27.5 66.5t66.5 27.5t66.5 -27.5t27.5 -66.5t-27.5 -66.5t-66.5 -27.5zM649 1003q-39 0 -66.5 27.5t-27.5 66.5t27.5 66.5t66.5 27.5t66.5 -27.5t27.5 -66.5t-27.5 -66.5t-66.5 -27.5zM504 -20q-202 0 -328 136t-126 355
q0 147 60.5 257.5t165.5 172t238 61.5q89 0 162.5 -29t117.5 -90t44 -157q0 -82 -46 -142t-120 -92.5t-160 -32.5q-46 0 -106.5 11t-109.5 34l9 20q47 -24 103 -34t104 -10q83 0 152.5 31.5t111.5 87.5t42 132q0 71 -35 124t-93 81.5t-125 28.5q-145 0 -234 -121.5
t-89 -332.5q0 -210 85.5 -332t228.5 -122q48 0 105 22t104 70.5t69 125.5l20 -5q-25 -88 -81 -143.5t-128 -81t-141 -25.5z" />
    <glyph glyph-name="igrave" unicode="&#xec;" horiz-adv-x="500" 
d="M433 0h-356q34 18 58 46.5t24 76.5v696q0 48 -24 76.5t-58 46.5l274 41v-860q0 -48 24 -76.5t58 -46.5zM345 1028h-24l-262 245h188z" />
    <glyph glyph-name="iacute" unicode="&#xed;" horiz-adv-x="500" 
d="M433 0h-356q34 18 58 46.5t24 76.5v696q0 48 -24 76.5t-58 46.5l274 41v-860q0 -48 24 -76.5t58 -46.5zM137 1023h-24l98 245h188z" />
    <glyph glyph-name="icircumflex" unicode="&#xee;" horiz-adv-x="500" 
d="M433 0h-356q34 18 58 46.5t24 76.5v696q0 48 -24 76.5t-58 46.5l274 41v-860q0 -48 24 -76.5t58 -46.5zM491 1025h-188l-45 209l-45 -209h-188l221 245h24z" />
    <glyph glyph-name="idieresis" unicode="&#xef;" horiz-adv-x="500" 
d="M433 0h-356q34 18 58 46.5t24 76.5v696q0 48 -24 76.5t-58 46.5l274 41v-860q0 -48 24 -76.5t58 -46.5zM134 1023q-39 0 -67 27.5t-28 66.5t28 66.5t67 27.5t66.5 -27.5t27.5 -66.5t-27.5 -66.5t-66.5 -27.5zM355 1023q-39 0 -67 27.5t-28 66.5t28 66.5t67 27.5
t66.5 -27.5t27.5 -66.5t-27.5 -66.5t-66.5 -27.5z" />
    <glyph glyph-name="eth" unicode="&#xf0;" 
 />
    <glyph glyph-name="ntilde" unicode="&#xf1;" horiz-adv-x="1125" 
d="M1075 -1h-356q34 18 58 46.5t24 76.5v384q0 146 -32 240.5t-87 140.5t-123 46q-62 0 -115.5 -36t-86.5 -98.5t-33 -141.5v-535q0 -48 24 -76.5t58 -46.5h-356q33 18 57 46.5t24 76.5v696q0 48 -24 76.5t-57 46.5l274 41v-207q34 88 109 137t172 49q101 0 189.5 -47
t143.5 -147.5t55 -260.5v-384q0 -48 24 -76.5t58 -46.5zM325 1002l-20 6q22 76 49.5 112.5t60.5 43.5l16 2q32 0 63 -18q38 -20 77 -50q84 -63 126 -63q31 0 59 36q23 32 44 103l19 -6q-38 -137 -105 -152l-16 -2q-32 0 -63 18q-38 21 -76 50l-9 6q-79 57 -118 57
q-7 0 -13 -1q-56 -10 -94 -142z" />
    <glyph glyph-name="ograve" unicode="&#xf2;" horiz-adv-x="1057" 
d="M529 -20q-137 0 -245.5 62t-171 172.5t-62.5 256.5q0 147 62.5 257.5t171 172t245.5 61.5q136 0 244.5 -61.5t171 -172t62.5 -257.5q0 -146 -62.5 -256.5t-171 -172.5t-244.5 -62zM529 0q101 0 164 64t92.5 170.5t29.5 236.5t-32 237t-95.5 170.5t-158.5 63.5
q-96 0 -159.5 -63.5t-95.5 -170.5t-32 -237t29.5 -236.5t92.5 -170.5t165 -64zM536 1003h-25l98 246h189z" />
    <glyph glyph-name="oacute" unicode="&#xf3;" horiz-adv-x="1057" 
d="M558 1003h-24l-262 246h188zM529 -20q-137 0 -245.5 62t-171 172.5t-62.5 256.5q0 147 62.5 257.5t171 172t245.5 61.5t245 -61.5t170.5 -172t62.5 -257.5q0 -146 -62.5 -256.5t-170.5 -172.5t-245 -62zM529 0q101 0 164 64t92.5 170.5t29.5 236.5t-32 237t-95.5 170.5
t-158.5 63.5q-96 0 -159.5 -63.5t-95.5 -170.5t-32 -237t29.5 -236.5t92.5 -170.5t165 -64z" />
    <glyph glyph-name="ocircumflex" unicode="&#xf4;" horiz-adv-x="1057" 
d="M762 1003h-189l-44 209l-45 -209h-189l221 246h25zM529 -20q-137 0 -245.5 62t-171 172.5t-62.5 256.5q0 147 62.5 257.5t171 172t245.5 61.5t245 -61.5t170.5 -172t62.5 -257.5q0 -146 -62.5 -256.5t-170.5 -172.5t-245 -62zM529 0q101 0 164 64t92.5 170.5t29.5 236.5
t-32 237t-95.5 170.5t-158.5 63.5q-96 0 -159.5 -63.5t-95.5 -170.5t-32 -237t29.5 -236.5t92.5 -170.5t165 -64z" />
    <glyph glyph-name="otilde" unicode="&#xf5;" horiz-adv-x="1057" 
d="M291 1003l-20 6q22 76 49.5 112.5t60.5 43.5l17 2q51 0 139 -68q84 -63 126 -63q7 0 13 1q55 11 90 138l20 -6q-40 -138 -106 -152l-16 -2q-53 0 -139 68q-51 35 -74 48q-28 15 -53 15q-7 0 -13 -1q-56 -10 -94 -142zM529 -20q-137 0 -245.5 62t-171 172.5t-62.5 256.5
q0 147 62.5 257.5t171 172t245.5 61.5q205 0 339.5 -134t138.5 -357q0 -146 -62.5 -256.5t-170.5 -172.5t-245 -62zM529 0q101 0 164 64t92.5 170.5t29.5 236.5t-32 237t-95.5 170.5t-158.5 63.5q-96 0 -159.5 -63.5t-95.5 -170.5t-32 -237t29.5 -236.5t92.5 -170.5t165 -64
z" />
    <glyph glyph-name="odieresis" unicode="&#xf6;" horiz-adv-x="1057" 
d="M639 1003q-39 0 -66.5 27.5t-27.5 66.5t27.5 66.5t66.5 27.5t66.5 -27.5t27.5 -66.5t-27.5 -66.5t-66.5 -27.5zM418 1003q-39 0 -66.5 27.5t-27.5 66.5t27.5 66.5t66.5 27.5t66.5 -27.5t27.5 -66.5t-27.5 -66.5t-66.5 -27.5zM529 -20q-137 0 -245.5 62t-171 172.5
t-62.5 256.5q0 147 62.5 257.5t171 172t245.5 61.5q136 0 244.5 -61.5t171 -172t62.5 -257.5q0 -146 -62.5 -256.5t-171 -172.5t-244.5 -62zM529 0q101 0 164 64t92.5 170.5t29.5 236.5t-32 237t-95.5 170.5t-158.5 63.5q-96 0 -159.5 -63.5t-95.5 -170.5t-32 -237
t29.5 -236.5t92.5 -170.5t165 -64z" />
    <glyph glyph-name="divide" unicode="&#xf7;" horiz-adv-x="918" 
d="M459 853q-44 0 -75 29.5t-32 72.5q0 43 31.5 73t75.5 30t75.5 -30t31.5 -73q-1 -43 -32 -72.5t-75 -29.5zM459 219q-44 0 -75.5 29.5t-31.5 72.5q0 42 31.5 72t75.5 30t75 -29.5t32 -72.5q-1 -44 -32 -73t-75 -29zM868 640h-818v21h818v-21z" />
    <glyph glyph-name="oslash" unicode="&#xf8;" horiz-adv-x="1057" 
d="M529 -20q-180 0 -309 105q-36 -42 -71 -85h-29l83 100q-72 65 -112.5 159.5t-40.5 211.5q0 147 62.5 257.5t171 172t245.5 61.5q180 0 308 -105l72 85h28l-83 -99q148 -134 153 -372q0 -146 -62.5 -256.5t-170.5 -172.5t-245 -62zM284 196l478 570q-35 82 -93.5 129
t-139.5 47q-96 0 -159.5 -63.5t-95.5 -170.5t-32 -237q0 -154 42 -275zM529 0q101 0 164 64t92.5 170.5t29.5 236.5q0 152 -44 273l-478 -571q72 -173 236 -173z" />
    <glyph glyph-name="ugrave" unicode="&#xf9;" horiz-adv-x="1110" 
d="M504 0q-100 0 -185 47.5t-136 148t-51 259.5v417h1q-12 53 -83 90l275 41v-548q0 -219 61.5 -322.5t163.5 -103.5q57 0 111 36t89 98t35 141v537q0 47 -24 75t-57 46l274 41v-819q0 -48 24 -76.5t58 -46.5l-275 -41v166q-34 -88 -108.5 -137t-172.5 -49zM538 1023h-25
l-262 246h189z" />
    <glyph glyph-name="uacute" unicode="&#xfa;" horiz-adv-x="1110" 
d="M548 1023h-25l98 246h189zM504 0q-100 0 -185 47.5t-136 148t-51 259.5v417h1q-12 53 -83 90l275 41v-548q0 -219 61.5 -322.5t163.5 -103.5q57 0 111 36t89 98t35 141v537q0 47 -24 75t-57 46l274 41v-819q0 -48 24 -76.5t58 -46.5l-275 -41v166q-34 -88 -108.5 -137
t-172.5 -49z" />
    <glyph glyph-name="ucircumflex" unicode="&#xfb;" horiz-adv-x="1110" 
d="M788 1023h-188l-45 209l-45 -209h-188l221 246h24zM504 0q-100 0 -185 47.5t-136 148t-51 259.5v417h1q-12 53 -83 90l275 41v-548q0 -219 61.5 -322.5t163.5 -103.5q57 0 111 36t89 98t35 141v537q0 47 -24 75t-57 46l274 41v-819q0 -48 24 -76.5t58 -46.5l-275 -41v166
q-34 -88 -108.5 -137t-172.5 -49z" />
    <glyph glyph-name="udieresis" unicode="&#xfc;" horiz-adv-x="1110" 
d="M666 1023q-39 0 -67 27.5t-28 66.5t28 66.5t67 27.5t66.5 -27.5t27.5 -66.5t-27.5 -66.5t-66.5 -27.5zM445 1023q-39 0 -67 27.5t-28 66.5t28 66.5t67 27.5t66.5 -27.5t27.5 -66.5t-27.5 -66.5t-66.5 -27.5zM504 0q-100 0 -185 47.5t-136 148t-51 259.5v417h1
q-12 53 -83 90l275 41v-548q0 -219 61.5 -322.5t163.5 -103.5q57 0 111 36t89 98t35 141v537q0 47 -24 75t-57 46l274 41v-819q0 -48 24 -76.5t58 -46.5l-275 -41v166q-34 -88 -108.5 -137t-172.5 -49z" />
    <glyph glyph-name="yacute" unicode="&#xfd;" horiz-adv-x="1208" 
d="M339 -491q-97 0 -172 52t-117 143l18 9q40 -87 109.5 -135.5t161.5 -48.5q101 0 175 75.5t133 237.5l41 112l-304 835q-46 128 -129 173h351q-46 -32 -46 -79q0 -19 8 -44l219 -611q82 228 137.5 430t55.5 275q0 23 -7 29h185q-43 -27 -144.5 -241.5t-215.5 -523.5
l-132 -362q-59 -164 -139 -245t-188 -81zM763 1023h-25l99 246h188z" />
    <glyph glyph-name="thorn" unicode="&#xfe;" 
 />
    <glyph glyph-name="ydieresis" unicode="&#xff;" horiz-adv-x="1208" 
d="M339 -491q-97 0 -172 52t-117 143l18 9q40 -87 109.5 -135.5t161.5 -48.5q101 0 175 75.5t133 237.5l41 112l-304 835q-46 128 -129 173h351q-46 -32 -46 -79q0 -19 8 -44l219 -611q82 228 137.5 430t55.5 275q0 23 -7 29h185q-43 -27 -144.5 -241.5t-215.5 -523.5
l-132 -362q-59 -164 -139 -245t-188 -81zM672 1023q-39 0 -66.5 27.5t-27.5 66.5t27.5 66.5t66.5 27.5t66.5 -27.5t27.5 -66.5t-27.5 -66.5t-66.5 -27.5zM893 1023q-39 0 -66.5 27.5t-27.5 66.5t27.5 66.5t66.5 27.5t66.5 -27.5t27.5 -66.5t-27.5 -66.5t-66.5 -27.5z" />
    <glyph glyph-name="dotlessi" unicode="&#x131;" 
 />
    <glyph glyph-name="Lslash" unicode="&#x141;" horiz-adv-x="1208" 
d="M1096 -4h-966q34 18 58 46.5t24 76.5v473l-147 -147l-15 14l162 162v685q0 48 -24 76.5t-58 46.5h368q-34 -18 -58 -46.5t-24 -76.5v-481l155 155l15 -14l-170 -170v-779h292q70 0 149 40.5t147 92.5t111 92l43 41z" />
    <glyph glyph-name="lslash" unicode="&#x142;" horiz-adv-x="537" 
d="M447 -2h-357q34 18 57.5 47t24.5 76v690l-122 71l12 21l110 -63v468q0 48 -24 76.5t-58 46.5l275 41v-743l122 -71l-12 -22l-110 64v-579q0 -48 24 -76.5t58 -46.5z" />
    <glyph glyph-name="OE" unicode="&#x152;" horiz-adv-x="1813" 
d="M1719 0h-933q-149 0 -284.5 42.5t-240.5 130.5t-166.5 223t-61.5 320q0 184 60 318t163 222t236 131.5t282 44.5h925l61 -245l-37 34q-36 34 -96 78t-132.5 78.5t-143.5 34.5h-327v-645q273 0 425 24t172 58v-184q-20 34 -171.5 58t-425.5 24v-727h307q70 0 149 41
t147 92.5t111 92.5l43 40zM819 21v1391h-33q-253 0 -390 -175t-137 -521q0 -345 137 -520t390 -175h33z" />
    <glyph glyph-name="oe" unicode="&#x153;" horiz-adv-x="1669" 
d="M1281 -20q-116 0 -208.5 46.5t-153.5 130.5q-142 -177 -379 -177q-136 0 -244.5 61.5t-171 172t-62.5 257.5q0 146 62.5 256.5t171 172.5t244.5 62q239 0 382 -181q138 181 369 181q89 0 162.5 -29t117.5 -90t44 -158q0 -82 -45.5 -141.5t-120 -92t-160.5 -32.5
q-46 0 -106 11t-110 34l9 20q47 -24 103 -34.5t104 -10.5q84 1 153 32t111 87.5t42 131.5q0 72 -35 124.5t-92.5 81.5t-125.5 29q-145 0 -234 -121.5t-89 -332.5q0 -210 85.5 -332.5t228.5 -122.5q49 0 105.5 22.5t103.5 70.5t70 126l19 -6q-25 -88 -81 -143t-127.5 -80.5
t-141.5 -25.5zM540 0q102 0 165 63.5t92.5 170.5t29.5 237q0 129 -32 236t-95.5 170.5t-159.5 63.5q-95 0 -158.5 -63.5t-95.5 -170.5t-32 -236q0 -130 29.5 -237t92.5 -170.5t164 -63.5z" />
    <glyph glyph-name="Scaron" unicode="&#x160;" horiz-adv-x="1048" 
d="M526 0q-213 0 -476 91l61 286q25 -98 86.5 -178.5t147 -129.5t181.5 -49t157 40.5t89.5 102t28.5 125.5q0 83 -47.5 150t-129 129.5t-184.5 130.5q-116 77 -200 143t-130 139.5t-46 174.5q0 91 51 163t151.5 113.5t251.5 41.5q123 0 215 -21.5t160 -43.5l54 -17l-62 -262
q-44 150 -141 237t-227 87q-129 0 -204.5 -62t-75.5 -160q0 -67 41 -124t103.5 -107.5t130.5 -96.5l125 -91q171 -120 265 -219t96 -238q0 -98 -49 -178.5t-153 -128.5t-270 -48zM528 1494h-25l-221 245h189l45 -209l44 209h189z" />
    <glyph glyph-name="scaron" unicode="&#x161;" horiz-adv-x="779" 
d="M366 0q-104 0 -194 50.5t-122 160.5l19 5q30 -101 109 -144t182 -43q86 0 147 38.5t61 102.5q0 69 -55 127t-188 144q-100 66 -146 101q-57 43 -87 91t-30 115q0 90 85.5 160.5t233.5 73.5q107 0 192 -52t116 -158l-19 -6q-19 66 -62.5 107.5t-100 61t-111.5 19.5
q-94 0 -141.5 -37.5t-47.5 -81.5t26 -79.5t67.5 -67t89.5 -62.5q131 -88 205 -146q67 -54 100.5 -106t33.5 -122q0 -65 -41 -122.5t-121.5 -93.5t-200.5 -36zM402 1023h-25l-221 246h188l45 -209l45 209h188z" />
    <glyph glyph-name="Ydieresis" unicode="&#x178;" horiz-adv-x="1389" 
d="M893 0h-372q34 23 58 52.5t24 77.5v513l-375 633q-44 73 -89 110t-89 54h416q-35 -30 -35 -75q0 -29 19 -64l354 -599q153 256 252 463t99 261q0 11 -5 14h189q-160 -149 -523 -758l-8 -15v-537q0 -48 24.5 -77.5t60.5 -52.5zM917 1481q-39 0 -66.5 27.5t-27.5 66.5
t27.5 66.5t66.5 27.5t66.5 -27.5t27.5 -66.5t-27.5 -66.5t-66.5 -27.5zM696 1481q-39 0 -66.5 27.5t-27.5 66.5t27.5 66.5t66.5 27.5t66.5 -27.5t27.5 -66.5t-27.5 -66.5t-66.5 -27.5z" />
    <glyph glyph-name="Zcaron" unicode="&#x17d;" horiz-adv-x="1254" 
d="M1143 0h-1068v21l868 1391h-483q-71 0 -143.5 -34.5t-132.5 -78.5t-97 -78l-37 -34l62 245h1076v-20l-869 -1391h435q71 0 149.5 40.5t146.5 92.5t110.5 91.5t43.5 41.5zM639 1474h-24l-221 245h188l45 -209l45 209h188z" />
    <glyph glyph-name="zcaron" unicode="&#x17e;" horiz-adv-x="884" 
d="M783 -1h-722v21l542 944h-239q-54 0 -109.5 -25.5t-101.5 -58t-74 -58.5l-29 -25l48 188h726v-21l-543 -944h212q59 0 119.5 28t110.5 64t81 64l30 28zM464 1027h-25l-221 246h189l44 -209l45 209h189z" />
    <glyph glyph-name="circumflex" unicode="&#x2c6;" horiz-adv-x="567" 
d="M517 1482h-189l-45 209l-44 -209h-189l221 246h25z" />
    <glyph glyph-name="caron" unicode="&#x2c7;" horiz-adv-x="567" 
d="M296 1480h-25l-221 246h189l44 -209l45 209h189z" />
    <glyph glyph-name="uni02C9" unicode="&#x2c9;" 
 />
    <glyph glyph-name="breve" unicode="&#x2d8;" 
 />
    <glyph glyph-name="dotaccent" unicode="&#x2d9;" 
 />
    <glyph glyph-name="ring" unicode="&#x2da;" horiz-adv-x="338" 
d="M169 1480q-49 0 -84 34.5t-35 84.5q0 49 35 83.5t84 34.5t84 -34.5t35 -83.5q0 -50 -35 -84.5t-84 -34.5zM169 1500q41 0 69.5 29t28.5 70q0 40 -28.5 69t-69.5 29t-69.5 -29t-28.5 -69q0 -41 28.5 -70t69.5 -29z" />
    <glyph glyph-name="ogonek" unicode="&#x2db;" horiz-adv-x="404" 
d="M354 -225h-136q-70 0 -119 35.5t-49 111.5q0 54 31.5 101.5t72.5 83.5t73 56l32 21h20l-25 -34q-25 -34 -50.5 -90.5t-25.5 -123.5q0 -31 11.5 -64t35 -55t59.5 -22h70v-20z" />
    <glyph glyph-name="tilde" unicode="&#x2dc;" horiz-adv-x="589" 
d="M417 1484q-37 0 -67.5 27t-59.5 59.5t-57.5 57t-55.5 24.5q-23 0 -50.5 -23.5t-59.5 -85.5l-17 8q33 64 64.5 91.5t62.5 27.5q37 0 67.5 -26.5t59.5 -59.5t57.5 -57t55.5 -24q50 0 106 106l16 -9q-60 -116 -122 -116z" />
    <glyph glyph-name="hungarumlaut" unicode="&#x2dd;" horiz-adv-x="596" 
d="M75 1238h-25l98 246h189zM284 1238h-25l98 246h189z" />
    <glyph glyph-name="endash" unicode="&#x2013;" 
 />
    <glyph glyph-name="emdash" unicode="&#x2014;" 
 />
    <glyph glyph-name="quoteleft" unicode="&#x2018;" horiz-adv-x="310" 
d="M159 1244q-47 0 -78 35.5t-31 99.5q0 83 42 146.5t104 95.5l10 -20q-94 -49 -117 -144l-1 -8q0 -17 12 -17l8 2q23 10 48 10q44 0 74 -29.5t30 -70.5t-28.5 -70.5t-72.5 -29.5z" />
    <glyph glyph-name="quoteright" unicode="&#x2019;" horiz-adv-x="310" 
d="M114 1164l-10 20q44 22 77 60q36 42 41 93q0 16 -12 16l-8 -2q-22 -10 -48 -10q-43 0 -73.5 29.5t-30.5 70.5t29 70.5t72 29.5q47 0 78 -35.5t31 -99.5q0 -84 -42 -147t-104 -95z" />
    <glyph glyph-name="quotesinglbase" unicode="&#x201a;" horiz-adv-x="310" 
d="M115 -179l-10 19q94 49 116 144l1 9q0 16 -11 16q-4 0 -8 -2q-22 -10 -48 -10q-43 0 -74 29.5t-31 70.5t29 70.5t72 29.5q48 0 78.5 -35t30.5 -100q0 -83 -42 -146.5t-103 -94.5z" />
    <glyph glyph-name="quotedblleft" unicode="&#x201c;" horiz-adv-x="561" 
d="M410 1231q-47 0 -78 35.5t-31 99.5q0 83 42 146.5t104 95.5l10 -20q-44 -23 -76 -60q-37 -43 -42 -93q0 -16 12 -16l8 2q23 10 48 10q44 0 74 -29.5t30 -70.5t-28.5 -70.5t-72.5 -29.5zM159 1231q-47 0 -78 35.5t-31 99.5q0 83 42 146.5t104 95.5l10 -20
q-94 -49 -117 -144l-1 -8q0 -17 12 -17l8 2q23 10 48 10q44 0 74 -29.5t30 -70.5t-28.5 -70.5t-72.5 -29.5z" />
    <glyph glyph-name="quotedblright" unicode="&#x201d;" horiz-adv-x="561" 
d="M114 1174l-10 20q44 23 77 60q36 43 41 93q0 16 -12 16l-8 -2q-22 -10 -48 -10q-43 0 -73.5 29.5t-30.5 70.5t29 70.5t72 29.5q47 0 78 -35t31 -100q0 -83 -42 -146.5t-104 -95.5zM365 1174l-10 20q94 49 117 144l1 8q0 17 -12 17l-8 -2q-22 -10 -48 -10
q-43 0 -73.5 29.5t-30.5 70.5t29 70.5t72 29.5q47 0 78 -35t31 -100q0 -83 -42 -146.5t-104 -95.5z" />
    <glyph glyph-name="quotedblbase" unicode="&#x201e;" horiz-adv-x="561" 
d="M114 -181l-10 20q44 23 77 60q36 43 41 93q0 16 -12 16l-8 -2q-22 -10 -48 -10q-43 0 -73.5 29.5t-30.5 70.5t29 70.5t72 29.5q47 0 78 -35t31 -100q0 -83 -42 -146.5t-104 -95.5zM365 -181l-10 20q94 49 117 144l1 8q0 17 -12 17l-8 -2q-22 -10 -48 -10
q-43 0 -73.5 29.5t-30.5 70.5t29 70.5t72 29.5q47 0 78 -35t31 -100q0 -83 -42 -146.5t-104 -95.5z" />
    <glyph glyph-name="dagger" unicode="&#x2020;" 
 />
    <glyph glyph-name="daggerdbl" unicode="&#x2021;" 
 />
    <glyph glyph-name="bullet" unicode="&#x2022;" 
 />
    <glyph glyph-name="ellipsis" unicode="&#x2026;" horiz-adv-x="1062" 
d="M146 -197q-41 1 -68.5 27.5t-27.5 64.5t28 65t68 27t68.5 -27t28.5 -65q-2 -39 -29.5 -65.5t-67.5 -26.5zM531 -197q-41 1 -68.5 27.5t-27.5 64.5t28 65t68 27t68 -27t28 -65q-1 -39 -28.5 -65.5t-67.5 -26.5zM916 -197q-40 0 -68 27t-28 65t28 65t68 27t68 -27t28 -65
q-1 -39 -28.5 -65.5t-67.5 -26.5z" />
    <glyph glyph-name="guilsinglleft" unicode="&#x2039;" 
 />
    <glyph glyph-name="guilsinglright" unicode="&#x203a;" 
 />
    <glyph glyph-name="fraction" unicode="&#x2044;" 
 />
    <glyph glyph-name="fraction" unicode="&#x2215;" 
 />
    <glyph glyph-name="franc" unicode="&#x20a3;" 
 />
    <glyph glyph-name="lira" unicode="&#x20a4;" horiz-adv-x="1130" 
d="M1019 0h-857v21l19 28q19 28 42.5 75t42.5 105t19 118q0 65 -13 130h-179v20h175q-14 62 -47 185h-171v20h165q-21 76 -37 156t-16 165q0 131 62 227.5t164 149.5t222 53q122 -2 221.5 -24t171.5 -45l44 -13l-61 -262q-44 150 -139.5 236.5t-225.5 86.5q-78 0 -135.5 -49
t-88 -133.5t-30.5 -190.5q0 -83 15 -174t35 -183h308v-20h-304q21 -97 36 -185h311v-20h-308q9 -62 9 -115q0 -99 -101 -207q-71 -77 -156 -134h418q71 0 149.5 40.5t146.5 92.5t111 92l43 41z" />
    <glyph glyph-name="peseta" unicode="&#x20a7;" 
 />
    <glyph glyph-name="Euro" unicode="&#x20ac;" horiz-adv-x="1445" 
d="M941 -1q-274 0 -470 161.5t-236 462.5h-185v20h183q-4 45 -4 92q0 48 4 92h-183v21h185q40 300 236 462t470 162q132 -2 237 -25t179 -46l38 -11l-62 -262q-46 150 -154.5 237t-237.5 87q-153 0 -256 -78t-159 -213.5t-68 -312.5h513v-21h-515q-2 -45 -2 -92t2 -92h515
v-20h-513q12 -178 68 -313.5t159 -213t256 -77.5q129 0 237.5 87t154.5 236l62 -261l-37 -11q-74 -24 -180 -47.5t-237 -23.5z" />
    <glyph glyph-name="uni2116" unicode="&#x2116;" 
 />
    <glyph glyph-name="trademark" unicode="&#x2122;" horiz-adv-x="968" 
d="M918 943h-129q28 16 28 42v396l-172 -438h-22l-172 404q0 -383 28 -404h-72q12 10 20 95t8 204v126q-67 52 -119 52h-26v-435q0 -26 28 -42h-130q12 7 20 16.5t8 25.5v435h-26q-24 0 -49 -10.5t-45.5 -24.5t-32.5 -24l-13 -11l21 84h423l170 -402l158 402h96
q-28 -14 -28 -42v-407q0 -26 28 -42z" />
    <glyph glyph-name="partialdiff" unicode="&#x2202;" 
 />
    <glyph glyph-name="Delta" unicode="&#x2206;" 
 />
    <glyph glyph-name="product" unicode="&#x220f;" 
 />
    <glyph glyph-name="summation" unicode="&#x2211;" 
 />
    <glyph glyph-name="minus" unicode="&#x2212;" 
 />
    <glyph glyph-name="radical" unicode="&#x221a;" 
 />
    <glyph glyph-name="infinity" unicode="&#x221e;" 
 />
    <glyph glyph-name="integral" unicode="&#x222b;" 
 />
    <glyph glyph-name="approxequal" unicode="&#x2248;" 
 />
    <glyph glyph-name="lessequal" unicode="&#x2264;" horiz-adv-x="857" 
d="M786 408l-736 287v22l736 287v-23l-708 -275l708 -275v-23zM807 183h-757v21h757v-21z" />
    <glyph glyph-name="greaterequal" unicode="&#x2265;" horiz-adv-x="857" 
d="M70 408v23l708 275l-708 275v23l737 -287v-22zM807 183h-757v21h757v-21z" />
    <glyph glyph-name="C.salt" unicode="&#xe200;" horiz-adv-x="1266" 
d="M762 -19q-149 0 -278.5 49t-226.5 143.5t-152 231.5t-55 313q0 175 55 312t152 231.5t226.5 143.5t278.5 49q131 0 237 -23.5t180 -47.5l37 -11l-61 -261q-46 149 -155 236t-238 87q-169 -2 -276.5 -95t-159 -255t-51.5 -366q0 -205 51.5 -367t159 -255t276.5 -95
q132 2 239.5 88t153.5 236l61 -262l-37 -11q-74 -23 -180 -47t-237 -24z" />
    <glyph glyph-name="C.ss01" unicode="&#xe201;" horiz-adv-x="1317" 
d="M761 -20q-150 0 -279 49t-226 143.5t-152 231.5t-55 313q0 175 55 312t152 231.5t226.5 143.5t278.5 49q200 -3 338 -109t167 -275l-20 -3q-28 160 -160 262t-325 105q-244 0 -370 -205q-117 -190 -117 -511q0 -322 117 -512q126 -205 370 -205q193 4 325 105.5
t160 261.5l20 -3q-29 -169 -169 -276.5t-336 -107.5z" />
    <glyph glyph-name="D.salt" unicode="&#xe202;" horiz-adv-x="1390" 
d="M726 -20q-145 2 -249.5 77t-145.5 202q-5 -59 -26.5 -118t-60.5 -99.5t-95 -40.5h-21v1309q0 48 -24 76.5t-58 46.5h578q149 0 278.5 -46t226.5 -136.5t152 -224.5t55 -309q0 -351 -156 -544t-454 -193zM726 1q128 0 213.5 82t128.5 227.5t43 334.5q0 231 -51.5 403.5
t-159 268t-276.5 95.5h-291v-1027q4 -170 114 -277t279 -107z" />
    <glyph glyph-name="G.salt" unicode="&#xe203;" horiz-adv-x="1317" 
d="M786 -18q-150 0 -283 49t-235 143.5t-160.5 231.5t-58.5 313q0 175 55 312t152 231.5t226.5 143.5t278.5 49q132 -1 237.5 -24t179.5 -47l37 -10l-61 -262q-46 149 -155 236t-238 87q-169 -2 -276.5 -95t-159 -255t-51.5 -366q0 -205 57.5 -367t171.5 -255.5t283 -93.5
q208 2 334 108t126 277q0 155 -97.5 248t-268.5 93q-72 -2 -143.5 -35.5t-131.5 -77.5t-97 -78l-37 -34l61 245h348q112 0 199.5 -42t137 -122.5t49.5 -196.5q0 -125 -63.5 -216t-172 -140.5t-244.5 -49.5z" />
    <glyph glyph-name="K.salt" unicode="&#xe204;" horiz-adv-x="1287" 
d="M1237 0h-443q18 18 18 47q0 34 -31 78l-423 540l-22 -21v-522q0 -47 24 -76t58 -46h-368q34 17 58 46t24 76v1187q0 48 -24 76.5t-58 46.5h368q-34 -18 -58 -46.5t-24 -76.5v-634q330 335 494 527.5t164 225.5l-1 4h195q-62 -30 -301.5 -253t-510.5 -495
q44 -26 100.5 -41t141.5 -15l408 -472q102 -117 211 -156z" />
    <glyph glyph-name="K.ss01" unicode="&#xe205;" horiz-adv-x="1343" 
d="M1293 1h-506q23 19 23 50t-35 72l-172 187q-208 230 -267 391v-578q0 -47 24 -76t58 -46h-368q34 17 58 46t24 76v1187q0 48 -24 76.5t-58 46.5h368q-34 -18 -58 -46.5t-24 -76.5v-430q40 65 146 134q221 157 363 276.5t142 142.5h201q-58 -23 -253.5 -143.5
t-439.5 -291.5q-88 -62 -123.5 -107t-35.5 -90q0 -58 63 -131q112 -131 325 -284l383 -279q83 -67 186 -106z" />
    <glyph glyph-name="S.salt" unicode="&#xe206;" horiz-adv-x="1116" 
d="M563 0q-94 0 -184.5 29t-164.5 86t-119 142t-45 196q0 117 56.5 203.5t163.5 125.5l7 -17q-103 -37 -156 -118t-53 -194q0 -97 42 -173.5t111.5 -129t156.5 -80t177 -27.5q143 0 229 67t86 178q0 83 -48 150t-129 129.5t-185 130.5q-116 77 -200 143t-129.5 139.5
t-45.5 175.5q0 90 50.5 162t151.5 113.5t251 41.5q123 0 215 -21t160 -44l54 -16l-61 -262q-45 149 -142 236t-226 87q-130 0 -205 -61.5t-75 -160.5q0 -67 41 -124t103.5 -107t129.5 -97q34 -24 65.5 -47t59.5 -44q114 -82 194.5 -150t123.5 -139.5t43 -166.5
q0 -99 -57 -179.5t-169 -128.5t-277 -48z" />
    <glyph glyph-name="R.salt" unicode="&#xe207;" horiz-adv-x="1325" 
d="M1036 0l-176 130q-238 182 -366 377t-158 336v-721q0 -48 24 -76.5t58 -45.5h-368q34 17 58 45.5t24 76.5v1187q0 48 -24 76.5t-58 46.5h559q164 0 288.5 -39t195 -133.5t70.5 -260.5q0 -148 -60 -241t-158 -136.5t-213 -43.5q-172 0 -283 102q82 -106 229 -204t360 -162
l166 -40zM639 637q145 0 222 99t77 287q0 109 -32 197.5t-104 139.5t-193 51h-273v-380q0 -121 41 -209.5t109 -136.5t153 -48z" />
    <glyph glyph-name="N.salt" unicode="&#xe208;" horiz-adv-x="1377" 
d="M1873 -344q-208 0 -396 109t-386 354l-907 1120v-367q0 -350 24 -597.5t58 -273.5h-184q33 27 57 275t24 596v392l-76 95q-53 67 -111.5 136.5t-122.5 128.5q-143 133 -267 133q-64 0 -102 -20l-9 18q48 23 128 23q208 0 396.5 -109t386.5 -354l821 -1010v256
q0 349 -24 597t-58 275h184q-33 -27 -57 -274.5t-24 -597.5v-283l115 -146l47 -58q52 -67 110.5 -136t122.5 -128.5t131 -96.5t137 -37q63 0 101 21l9 -19q-48 -22 -128 -22z" />
    <glyph glyph-name="M.salt" unicode="&#xe209;" horiz-adv-x="1605" 
d="M296 -420q-49 0 -98 20l3 11q42 -15 88 -15q75 0 145.5 38.5t136.5 127t127 237.5h-20l-526 1239v-368q0 -350 24 -597.5t58 -273.5h-184q34 27 58 275t24 596v416l-82 145h241l505 -1191l486 1191q176 426 472 426q68 0 110 -22l-6 -13q-41 19 -104 19
q-133 0 -248.5 -101.5t-201.5 -308.5h226q-33 -18 -57 -46.5t-24 -76.5v-1187q0 -48 24 -76.5t57 -45.5h-368q34 17 58 45.5t24 76.5v1160l-523 -1282h-1q-85 -211 -188.5 -315t-235.5 -104z" />
    <glyph glyph-name="g.salt" unicode="&#xe222;" horiz-adv-x="1034" 
d="M651 -491q-80 0 -145 19t-121 48.5t-108 61.5q-48 30 -97 56t-102.5 42.5t-116.5 16.5q-210 0 -363 -244l-17 11q56 91 132 157q110 96 248 96q67 0 123.5 -17t108.5 -44t102.5 -58t104.5 -59t114.5 -46t132.5 -18q106 0 182 57t76 145q0 68 -59.5 100.5t-182.5 40.5
t-247 16q-160 12 -238.5 69.5t-78.5 142.5q0 55 31.5 87.5t74.5 50t81 25.5q-87 50 -137 134.5t-50 193.5q0 116 56 203.5t153.5 136.5t219.5 49q129 0 229 -53q-53 55 -86 116q-22 42 -22 85q0 66 64 99q55 27 148 27l27 -1l-1 -20h-21q-197 0 -197 -105q0 -37 21 -76
q34 -65 126 -159l23 -24q119 -107 119 -278q0 -116 -56 -203.5t-153.5 -136.5t-220.5 -49q-118 0 -215 47q-39 -6 -73 -17.5t-56 -28.5t-22 -42q0 -40 64 -59t190 -27l234 -17q176 -12 262.5 -74.5t86.5 -169.5q0 -101 -50 -169.5t-129.5 -103t-168.5 -34.5zM528 220
q91 0 140.5 50.5t68.5 135t19 187.5t-21 187.5t-71 135t-136 50.5q-85 0 -135 -50.5t-71 -135t-21 -187.5t19 -187.5t68 -135t140 -50.5z" />
    <glyph glyph-name="ampersand.salt" unicode="&#xe256;" horiz-adv-x="1602" 
d="M542 -20q-217 0 -354.5 112t-137.5 284q0 94 43 169.5t116 127.5t163 75q-182 273 -182 428q0 81 36.5 143.5t111.5 98.5t189 36q151 -3 243.5 -88t92.5 -219q0 -88 -39 -156t-105.5 -118t-152.5 -85q105 -141 245 -317l136 -172q39 84 73 171q29 73 59.5 140t68.5 120.5
t88 84.5t118 31q86 0 142 -59.5t56 -152.5q0 -67 -38.5 -115.5t-92.5 -67.5l-6 19q47 17 81.5 60.5t34.5 103.5q0 86 -49.5 139t-127.5 53q-84 0 -139.5 -50.5t-95.5 -131.5t-77 -175.5t-81 -187.5q37 -47 74.5 -95.5t98 -107t119.5 -77.5h-72q-113 0 -193.5 23.5
t-134.5 91.5q-120 -136 -311 -136zM554 804q65 41 101 98t49.5 124.5t13.5 141.5q0 85 -25.5 144.5t-68 90t-92.5 30.5q-83 0 -131.5 -58.5t-48.5 -154.5q0 -56 29.5 -127t75.5 -145.5t97 -143.5zM542 1q186 0 298 132l-287 368q-64 79 -165 224q-64 -36 -103 -106.5
t-39 -174.5q0 -115 31 -216.5t96.5 -164t168.5 -62.5z" />
    <glyph glyph-name="uni0009" 
 />
    </font>
</defs>
</svg>
