<svg width="87" height="121" viewBox="0 0 87 121" fill="none" xmlns="http://www.w3.org/2000/svg">
<path d="M33.4853 53.2095L37.4464 65.3995C40.1172 73.6187 46.5613 80.0627 54.7805 82.7336L66.9705 86.6947L54.7805 90.6559C46.5613 93.3267 40.1172 99.7707 37.4464 107.99L33.4853 120.18L29.5241 107.99C26.8533 99.7707 20.4092 93.3267 12.19 90.6559L0 86.6947L12.19 82.7336C20.4092 80.0627 26.8533 73.6187 29.5241 65.3995L33.4853 53.2095Z" fill="white"/>
<path d="M66.5123 0L68.8305 7.13394C70.4132 12.0046 74.2319 15.8233 79.1025 17.406L86.2365 19.7242L79.1025 22.0424C74.2319 23.6251 70.4132 27.4438 68.8305 32.3144L66.5123 39.4484L64.1941 32.3144C62.6114 27.4438 58.7927 23.6251 53.922 22.0424L46.7881 19.7242L53.922 17.406C58.7927 15.8233 62.6114 12.0046 64.1941 7.13394L66.5123 0Z" fill="white"/>
</svg>
